
<svg xmlns="http://www.w3.org/2000/svg" version="1.1" xmlns:xlink="http://www.w3.org/1999/xlink" preserveAspectRatio="none" x="0px" y="0px" width="54px" height="104px" viewBox="0 0 54 104">
<defs>
<filter id="Filter_1" x="-33.83814774947317%" y="-23.47613208033801%" width="167.67629549894633%" height="146.952264160676%" color-interpolation-filters="sRGB">
<feGaussianBlur in="SourceGraphic" stdDeviation="1,1" result="result1"/>
</filter>

<g id="Layer0_0_FILL">
<path fill="#00FF00" fill-opacity="0" stroke="none" d="
M 54 56
L 0 56 0 104 54 104 54 56 Z"/>
</g>

<g id="legsDmg_0_Layer0_0_FILL">
<path fill="#FFFF00" stroke="none" d="
M -9.3 18.45
L -9.6 18.3 -9.75 18.35 -10 18.5 -10.1 18.65 -10.15 18.8 -10.1 19 -10 19.2
Q -9.6 19.5 -9.35 19.2
L -9.25 19.15 -9.1 18.95 -9.2 18.6
Q -9.2 18.55 -9.3 18.45
M 7.9 18.45
L 7.75 18.5 7.5 18.65 7.4 18.8 7.35 18.95 7.4 19.15 7.5 19.35
Q 7.9 19.65 8.15 19.35
L 8.25 19.3 8.4 19.1 8.3 18.75
Q 8.3 18.7 8.2 18.6
L 7.9 18.45
M 8.1 15.4
L 8.05 15.4 7.95 15.55 7.85 15.95
Q 7.85 16.35 8 16.5 8.1 16.65 8.25 16.65 8.35 16.75 8.45 16.65
L 8.7 16.55 8.8 16.45 8.9 15.95 8.8 15.5 8.65 15.35
Q 8.35 15.15 8.1 15.4
M 7.25 0.85
Q 7.35 0.5 7.2 0.3 7.05 0 6.75 0.05 6.45 0.05 6.3 0.35
L 6.3 0.6
Q 6.25859375 0.99375 6.25 1.35
L 6.35 2.25 6.4 2.55
Q 6.4998046875 2.7498046875 6.6 2.85 6.85 3 7.05 2.95 7.35 2.85 7.4 2.65 7.45 2.45 7.35 2.05
L 7.25 0.85
M 8.4 6.85
Q 8.15 6.4 7.7 6.4 7.3 6.4 6.95 6.75
L 6.85 6.9
Q 6.7 7.2 6.7 7.6 6.8 7.7 6.7 7.75
L 6.55 7.8
Q 6.45078125 7.89921875 6.5 7.9 6.35 7.900390625 6.35 8.05 6.2 8.7 6.55 9.3
L 6.8 10.45
Q 6.95 10.55 6.95 10.75 6.95 11 7.1 11.2
L 7.2 11.4
Q 7.2197265625 11.518359375 7.3 11.65
L 7.35 11.65
Q 7.65 11.65 7.8 11.9
L 7.95 12.35 7.95 12.4
Q 8.003125 12.43828125 8.05 12.45 8.3 12.55 8.5 12.35
L 8.6 12.2
Q 8.65 12.1 8.65 11.55 8.6 11.25 8.65 10.9
L 8.65 10.85 8.85 8.9
Q 8.85 8.2 8.75 7.85
L 8.4 6.85
M 7.65 6.9
L 7.85 7 8.05 7.2 8.15 7.6 8.15 7.95
Q 8.2 7.9 8.2 7.95
L 8.3 8.3 8.3 8.4 8.35 8.35 8.5 11.5 8.4 11.6
Q 8.35 11.8 8.05 11.9 7.8 11.9 7.65 11.7 7.55 11.6 7.55 11.3
L 7.45 10.8 7.45 10.7 7.15 8 7.15 7.95 7.15 7.8 7.2 7.3 7.25 7.35 7.2 7.2 7.3 7.1
Q 7.5 6.9 7.65 6.9
M -8.25 5.5
Q -8.349609375 5.6873046875 -8.5 5.8 -8.6369140625 5.88203125 -8.8 5.85 -8.81015625 5.91015625 -8.85 5.95
L -9.15 6.5
Q -9.65 7.45 -9.8 8.25
L -10.05 10.8
Q -10.15 11.05 -10.05 11.35
L -9.7 12.4
Q -9.5 12.8 -9.1 12.65 -8.95 12.6 -8.75 12.3
L -8.4 11.8
Q -8.25 11.55 -8.15 11 -8.3 9.9 -8.3 9.35
L -7.75 6.9 -7.6 6.5 -7.6 5.95
Q -7.6 5.65 -7.85 5.55 -8.0658203125 5.4419921875 -8.25 5.5
M -8.3 6.9
L -8.25 7.1
Q -8.15 7.25 -8.35 7.45 -8.45 7.45 -8.45 7.6
L -8.5 7.75 -8.5 8 -8.55 8.1 -8.7 8.75 -8.75 9.25 -8.65 10.8
Q -8.65 11.3 -8.75 11.5
L -8.85 11.65
Q -9 11.8 -9.25 11.8
L -9.5 11.65
Q -9.65 11.6 -9.65 11.3
L -9.7 10.9 -9.7 9.7
Q -9.75 9.1 -9.7 8.6
L -9.65 8.3 -9.65 8.2 -9.5 7.7
Q -9.4 7.65 -9.5 7.55
L -9.35 7.1 -9.3 7
Q -9.3 6.95 -9.25 6.95 -9 6.55 -8.55 6.65 -8.35 6.75 -8.35 6.85
L -8.3 6.9
M -6.1 -15.55
L -6.15 -15.5
Q -6.17890625 -15.4615234375 -6.2 -15.45 -6.269921875 -15.312890625 -6.25 -15.3
L -6.2 -15.25 -6.25 -15.25
Q -6.2419921875 -15.1802734375 -6.25 -15.15
L -6.25 -15.1
Q -6.280859375 -14.952734375 -6.3 -14.8
L -6.4 -12.85 -6.2 -12.75 -6.05 -12.8 -5.85 -12.9 -5.75 -13 -5.75 -13.05 -5.7 -13.25 -5.65 -13.6 -5.65 -13.7 -5.6 -13.9 -5.6 -14.05 -5.5 -14.1
Q -5.5359375 -14.1716796875 -5.5 -14.35 -5.4783203125 -14.379296875 -5.45 -14.45 -5.3 -14.55 -5.4 -14.65
L -5.3 -14.7 -5.35 -14.8 -5.3 -14.85 -5.15 -15.1 -5.1 -15.15 -5.15 -15.25 -5.05 -15.25 -5.1 -15.4 -5.05 -15.45
Q -4.95 -15.55 -5.05 -15.7
L -5.1 -15.9 -5.1 -15.85
Q -5.1013671875 -15.8970703125 -5.2 -16 -5.50859375 -15.9966796875 -5.85 -16
L -6 -15.85 -6.05 -15.85 -6 -15.65 -6.05 -15.7 -6.1 -15.55
M 5.05 -12.65
Q 4.8263671875 -12.6205078125 4.6 -12.6 4.15 -12.5 4.1 -12.45 3.637109375 -12.2396484375 3.6 -11.8 3.6341796875 -11.694921875 3.65 -11.6 3.45 -11.7 3.2 -11.6 2.95 -11.5 2.85 -11.3 2.55 -11.5 2.3 -11.4 2 -11.3 1.9 -10.95 1.9 -10.75 2.1 -10.45 2.45 -9.9 2.8 -9.8 3.05 -9.7 3.5 -9.65 3.8 -9.45 3.9 -9 4.2 -7.9 4.75 -5.35
L 4.9 -4.6 5.25 -3.75
Q 5.35 -2.9 5.45 -2.75 5.7 -2.25 6.2 -2.15 6.7 -2 7.15 -2.35 7.4328125 -2.5384765625 7.55 -2.9
L 7.6 -2.95
Q 7.6384765625 -2.998046875 7.65 -3.05
L 7.7 -3.1 7.7 -3.15
Q 8.0267578125 -3.5482421875 8.15 -4 8.25 -4.35 8.15 -5.1
L 8 -7.2
Q 7.65 -10.45 7.4 -11.55 7.4 -11.85 7.2 -12.05 7.1 -12.2 6.75 -12.3 5.916015625 -12.6177734375 5.05 -12.65
M 6.55 -11.95
L 6.7 -11.5 7.2 -6.95
Q 7.25 -6.15 7.65 -4.65 7.85 -4.3 7.75 -4 7.65 -3.5 7.3 -3.6 7.25 -3.45 7.05 -3.35 6.9 -3.3 6.85 -3.2
L 6.8 -3
Q 6.75 -2.75 6.5 -2.6 6.391796875 -2.5568359375 6.3 -2.55 6.1634765625 -2.56484375 6.05 -2.65 5.8 -2.8 5.8 -3.15
L 5.8 -3.8
Q 5.8 -3.9 5.65 -4.45 5.55 -4.85 5.6 -5.1 5.3 -5.25 5.3 -5.55 5.2 -5.8 5.3 -6.05 5.3 -6.65 5.05 -7.3
L 4.65 -8.95
Q 4.55 -9.35 4.6 -9.6 4.630859375 -9.75390625 4.7 -9.85
L 4.6 -10.05
Q 4.184765625 -10.1021484375 3.95 -10.65 3.92578125 -10.718359375 3.9 -10.8 3.8767578125 -10.911328125 3.85 -11.05 3.8306640625 -11.480859375 4.15 -11.8 4.2337890625 -11.875390625 4.35 -11.95 4.65 -12.2 5.05 -12.15 5.1140625 -12.14296875 5.15 -12.15 5.3279296875 -12.096875 5.45 -12.05 5.602734375 -11.94609375 5.7 -11.8 5.8138671875 -11.9708984375 5.9 -12.05 6.0138671875 -12.1 6.1 -12.1 6.35 -12.15 6.55 -11.95
M 4.9 -10.05
Q 4.9390625 -10.03359375 4.95 -10.05 5.0345703125 -10.01640625 5.1 -10 5 -10.15 4.9 -10.05
M 3.55 -12.75
L 3.3 -12.75
Q 2.9353515625 -12.7392578125 2.7 -12.7 1.85 -12.35 1.4 -12.3 0.85 -12.15 0.8 -12.1
L 0.5 -11.85
Q 0.35 -11.7 0 -11.7 -1.4 -11.7 -2.55 -12.45 -2.9 -12.3 -3.4 -12.4 -3.488671875 -12.41484375 -3.6 -12.45 -3.241015625 -12.190625 -3 -11.9
L -2.85 -11.85
Q -2.8630859375 -11.784375 -2.9 -11.75 -2.6578125 -11.4017578125 -2.6 -11.05 -2.4875 -11.0123046875 -2.4 -11 -1.4048828125 -11.55 -0.35 -11.55
L -0.3 -11.55 0.2 -11.65 2.75 -11.75
Q 3.088671875 -11.8580078125 3.6 -12 3.4 -12.3 3.7 -12.6
L 4.05 -12.75 3.55 -12.75
M -5.15 -13.1
Q -5.35 -13.4 -5.55 -13.2 -5.6296875 -13.040625 -5.65 -12.65 -5.5228515625 -12.75078125 -5.4 -12.8 -5.209375 -12.8732421875 -5 -12.9
L -5.15 -13.1
M -3.85 -12.05
Q -4.15 -12.2 -4.45 -12.2 -5.135546875 -12.2857421875 -5.6 -12 -5.678515625 -11.914453125 -5.75 -11.85
L -6.4 -10.9
Q -6.8 -10.2 -7.2 -8.4
L -7.35 -7.8 -7.55 -5.95 -7.5 -5.3
Q -7.2 -4.3 -7.1 -3.8
L -6.95 -3.3
Q -6.65 -2.8 -6.05 -2.9 -5.65 -2.95 -5.3 -3.4
L -3.8 -5.5
Q -3.45 -6.1 -3.45 -6.35 -3.4 -6.5 -3.5 -6.85 -3.1 -7.85 -3.05 -7.95
L -2.95 -8.65
Q -2.95 -10.85 -3.55 -11.7 -3.55 -11.75 -3.85 -12.05
M -4.1 -11.4
Q -4.025 -11.25 -4.1 -11.05 -3.85 -11.05 -3.75 -10.75 -3.65 -10.65 -3.65 -10.35
L -3.65 -7.55 -3.7 -7.1 -4.05 -6.5 -4.3 -5.9
Q -4.3228515625 -5.8486328125 -4.35 -5.8 -4.4859375 -5.571484375 -4.7 -5.6 -4.7923828125 -5.559765625 -4.9 -5.6 -4.876171875 -5.5283203125 -4.85 -5.45
L -4.85 -5.45
Q -4.82734375 -5.21796875 -4.9 -5
L -5.05 -4.7
Q -5.2279296875 -4.4330078125 -5.45 -4.4 -5.5576171875 -4.3390625 -5.7 -4.4 -5.6197265625 -4.038671875 -5.85 -3.9 -5.92109375 -3.8294921875 -6 -3.8 -6.35 -3.65 -6.6 -4 -6.7 -4.15 -6.7 -4.55
L -6.6 -7.55
Q -6.6 -7.9755859375 -6.6 -8.3 -6.5291015625 -8.662890625 -6.45 -8.9
L -6.3 -9.35
Q -6.222265625 -9.6220703125 -6.05 -9.8 -6.0056640625 -9.8166015625 -5.95 -9.85 -5.8974609375 -9.8875 -5.85 -9.95 -5.5701171875 -10.055078125 -5.4 -9.8
L -5.25 -10.25 -5.1 -11.15
Q -5.1 -11.190625 -5.1 -11.25 -5.0755859375 -11.4244140625 -4.95 -11.55 -4.7 -11.8 -4.35 -11.65 -4.15 -11.55 -4.1 -11.4
M -5.55 -6.75
L -5.6 -6.8 -5.65 -6.8 -5.6 -6.65 -5.55 -6.7 -5.55 -6.75
M -7.45 2.75
Q -7.1 2.95 -6.9 2.55 -6.85 2.2 -6.8 2
L -6.7 1.5 -6.55 1.2
Q -6.4 0.95 -6.4 0.8 -6.3 0.5 -6.6 0.3 -6.85 0.1 -7.15 0.3 -7.35 0.45 -7.45 0.7 -7.7 1.1 -7.8 1.75 -7.9 2.05 -7.8 2.3 -7.8 2.65 -7.45 2.75
M 0.05 -10.7
L 0 -10.75 -0.2 -10.85 -0.5 -10.8 -0.75 -10.7 -1.95 -10.35
Q -2.0494140625 -10.35 -2.05 -10.2 -2.05078125 -10.24921875 -2.1 -10.2 -2.1966796875 -10.1033203125 -2.1 -10.1
L -2.15 -10.1 -2.15 -9.9 -2.25 -9.95 -2.2 -9.8 -2.25 -9.75
Q -2.35 -9.5 -2.25 -9.25
L -2.2 -9.05
Q -2.2 -9 -2.1 -8.9
L -1.85 -8.7 -1.55 -8.65
Q -1.15 -8.65 -1 -8.75
L -0.35 -8.9 -0.05 -9.1 0.55 -9.4 0.65 -9.5 0.75 -9.7
Q 0.8 -9.85 0.7 -10.05 0.7 -10.1 0.6 -10.2
L 0.25 -10.35 0.15 -10.55 0.1 -10.6
Q 0.15 -10.6 0.05 -10.7
M -9.55 15.05
L -9.7 15.1 -9.95 15.25 -10 15.3 -10.05 15.4 -10.1 15.55 -10.05 15.75 -9.95 15.95
Q -9.55 16.25 -9.3 15.95
L -9.2 15.9 -9.05 15.7 -9.15 15.35
Q -9.15 15.3 -9.25 15.2
L -9.55 15.05
M 6 -16.45
Q 5.95 -16.45 5.85 -16.35
L 5.8 -16.2 5.75 -16.05 5.8 -15.85 5.9 -15.7 5.9 -15.65 6.15 -15.4 6.2 -15.25 6.3 -15.1 6.3 -15 6.35 -14.95 6.35 -14.85 6.45 -14.65 6.4 -14.5
Q 6.5 -14.4 6.45 -14.35
L 6.5 -14.35 6.6 -14 6.6 -14 6.6 -13.85 6.75 -13.55 6.9 -13.4
Q 7.1 -13.3 7.25 -13.4 7.0994140625 -15.353125 7.05 -15.6
L 6.85 -16 6.5 -16.25
Q 6.2982421875 -16.4517578125 6.15 -16.6
L 6.05 -16.55 5.95 -16.5 6 -16.45
M -10.6 22
L -10.95 22.1 -11.55 22.7 -11.65 22.85 -11.65 22.95 -11.7 23.05
Q -11.8 23.15 -11.8 23.2
L -11.85 23.2
Q -11.8 23.25 -11.9 23.35
L -11.95 23.6 -11.95 23.75 -12 23.8 -12.05 23.9 -12.05 24
Q -12.1 24.15 -12.05 24.3
L -12.05 24.4 -12 24.45
Q -11.95 24.6 -11.75 24.7
L -11.45 24.75 -11.15 24.7 -10.85 24.55 -10.7 24.45 -10.3 24.05 -10.2 23.9
Q -10.1 23.8 -10.15 23.75
L -10.1 23.7 -9.95 23.45 -9.95 23.4 -9.85 23.25 -9.8 23.1 -9.8 23 -9.75 22.65 -9.8 22.5
Q -9.9 22.3 -9.85 22.25
L -10.05 22.05
Q -10.35 21.9 -10.6 22
M -10.6 23.05
Q -10.575 23.1126953125 -10.55 23.15 -10.5125 23.3501953125 -10.55 23.5
L -10.6 23.5 -10.7 23.8 -10.75 23.8 -10.9 24.05 -11 24.25 -11.1 24.35
Q -11.25 24.6 -11.55 24.5 -11.8 24.5 -11.9 24.25 -12 24.05 -11.95 23.9
L -11.9 23.75 -11.8 23.6
Q -11.7 23.5 -11.75 23.45
L -11.65 23.4 -11.5 23.1 -11.4 22.95
Q -11.3 22.8 -11.1 22.8 -10.7892578125 22.711328125 -10.65 22.95 -10.616796875 23.0107421875 -10.6 23.05
M 8.5 20.6
Q 8.3 20.55 8.15 20.65
L 8 20.8
Q 7.8 21.1 7.95 21.45
L 8.1 21.8 8.25 22.05 8.05 22.15 7.95 22.25
Q 8.1 22.4 7.95 22.4
L 7.7 22.95 7.7 23.25
Q 7.6 23.45 7.55 23.45
L 7.35 23.75 7.3 23.9
Q 7.25 24.2 7.5 24.45 7.75 24.6 8 24.45
L 8.2 24.3 8.3 24.2 8.35 24.1
Q 8.55 24.3 8.7 24.35
L 10.1 24.65 10.5 24.6
Q 10.75 24.5 10.75 24.35
L 10.85 24.25 10.85 24 10.8 24 10.7 23.7 9.6 22.05 9.45 21.9 9.1 21.45 9 21.4
Q 9.1 21.35 9 21.25
L 8.8 20.85
Q 8.75 20.65 8.5 20.6
M 9.6 22.5
L 9.6 22.6 9.8 22.95
Q 9.8 23.05 10 23.15
L 10.25 23.3 10.35 23.55 10.4 23.8 10.3 23.9 10.3 23.95 10.25 23.95
Q 10.1474609375 24.2396484375 9.7 24.15 9.4 24.05 9.15 23.75
L 8.8 23.25
Q 8.5 22.85 8.5 22.55 8.5 22.5 8.55 22.5
L 8.6 22.35
Q 8.6384765625 22.26015625 8.65 22.2 8.826953125 22.0255859375 9.05 22.1 9.4 22.1 9.5 22.4
L 9.6 22.5 Z"/>

<path fill="#FF0000" stroke="none" d="
M 2.95 -15.95
L 2.8 -15.75
Q 2.55 -15.55 2.35 -15.15 2.05 -14.6 2.5 -14.25 2.7 -14.15 2.95 -14.2 3.2 -14.3 3.25 -14.5
L 3.3 -14.8 3.3 -14.85 3.35 -14.8
Q 3.55 -14.6 3.75 -14.6
L 4.15 -14.7 4.3 -14.8 4.3 -14.85
Q 4.399609375 -14.9994140625 4.45 -15 4.400390625 -15.000390625 4.5 -15.1 4.5654296875 -15.1654296875 4.75 -15.2
L 5.55 -16 5.8 -16.2 5.85 -16.35
Q 5.95 -16.45 6 -16.45
L 5.95 -16.5 6.05 -16.55 6.1 -16.6
Q 6.12890625 -16.590234375 6.15 -16.6 6.2982421875 -16.4517578125 6.5 -16.25
L 6.85 -16 7.05 -15.6
Q 7.0994140625 -15.353125 7.25 -13.4 7.1 -13.3 6.9 -13.4
L 6.75 -13.55 6.6 -13.85 6.6 -14
Q 6.50078125 -13.9921875 6.4 -14
L 4.75 -13.95 4.15 -13.8 -0.9 -13.95
Q -1.3 -13.95 -1.5 -13.85 -1.8 -13.75 -1.9 -13.45 -2.0685546875 -13.50625 -2.25 -13.55
L -1.85 -13.65 -1.55 -14.1 -1.4 -14.9
Q -1.45 -15.55 -2.3 -16.3 -2.8 -16.7 -3.1 -16.8
L -3.7 -16.9 -4.6 -16.95 -4.65 -17 -4.75 -17 -5.9 -17.05 -6.4 -17
Q -6.8 -16.85 -7 -16.35 -7.3 -15.65 -7.3 -14.45
L -7.45 -11.6
Q -7.45 -11.1 -7.3 -10.9 -7.0234375 -10.6234375 -6.8 -10.75 -6.943359375 -10.3564453125 -7.15 -9.8 -8 -7.35 -7.9 -6.2 -7.55 -4.45 -7.4 -3.6 -7.15 -2.55 -7.25 -1.5 -7.35 -0.7 -7.1 -0.4 -7.85 0.35 -8.05 2 -8.1267578125 2.383984375 -8.2 2.95 -8.2482421875 2.9982421875 -8.3 3.05 -8.5 3.2 -8.5 3.4 -8.65 3.4 -8.65 3.6
L -9.2 5.1 -9.25 5.4
Q -9.25 5.7 -9 5.8 -8.949609375 5.8302734375 -8.9 5.85 -10.55 8.2 -10 12.4 -9.905859375 12.7765625 -9.85 13.05
L -9.95 13.1
Q -10 13.2 -10.1 13.35 -10.15 13.6 -10.05 14
L -10 15.3 -9.95 15.25 -9.7 15.1 -9.55 15.05 -9.25 15.2
Q -9.15 15.3 -9.15 15.35
L -9.05 15.7 -9.2 15.9 -9.3 15.95
Q -9.55 16.25 -9.95 15.95
L -9.9 17.1
Q -9.9 17.55 -9.7 17.7 -9.6 17.8 -9.4 17.8 -9.25 17.9 -9.05 17.7
L -8.95 17.55
Q -8.85 17.45 -8.85 17.1
L -8.95 15.3
Q -8.8439453125 15.0732421875 -8.8 14.7
L -8.4 13.4
Q -7.1423828125 10.0623046875 -7 5.8 -6.88984375 5.7966796875 -6.75 5.75 -6.55 5.65 -6.35 5.25
L -6.15 4.7
Q -5.95 4.2 -6.05 3.45
L -6.1 3.15
Q -6.014453125 3.1359375 -5.95 3.05
L -5.85 2.9
Q -5.75 2.7 -5.8 2.55
L -5.65 2.2 -5.6 2.15 -5.35 1.6 -5.3 1.55
Q -5.35 1.5 -5.3 1.4
L -5.2 1.1 -5.15 0.85 -5.1 -0.4 -4.95 -1 -4.95 -1.1
Q -4.9 -1.3 -5 -1.5 -5.05 -1.7 -5.3 -1.75 -5.3916015625 -1.7728515625 -5.5 -1.8 -5.177734375 -2.5447265625 -4.75 -3.4 -4.1 -4.75 -3.4 -5.3 -3.6 -4.55 -3.55 -3.8 -3.55 -3.25 -3.2 -3.1 -2.7 -2.9 -2.35 -3.7 -2.3 -3.75 -1.9 -5 -1.6 -5.8 -1.3 -6.3 -1.1 -6.65 -0.65 -7.4 -0.55 -7.8 -0.45 -7.9 -0.3 -8.1 0.05 -8.2 0.4 -8.4 0.85 -9.05 1.3 -9.7 1.6 -9.9
L 2.55 -9.25
Q 2.75 -9.15 2.8 -8.95 2.85 -8.75 2.7 -8.4 2.5 -7.85 2.3 -6.85
L 2.3 -6.25
Q 2.55 -5.9 2.75 -5.9 3.1 -5.9 3.3 -6.35
L 3.5 -7.1
Q 3.85 -6.45 4.4 -4.35 4.9 -2.6 5.55 -1.8 5.8345703125 -1.444140625 6.1 -1.4 6.048828125 -1.4 6 -1.4 5.65 -1.4 5.5 -1.15 5.3 -0.9 5.2 -0.3 5.1 0.5 5.2 1.35
L 5.3 1.95
Q 5.4 2.95 5.7 3.55
L 6.3 4.8
Q 6.3 4.9 6.6 5.3 6.7697265625 5.4697265625 6.9 5.55 6.8640625 5.6716796875 6.75 5.9 6 7.6 5.85 8.95 5.75 10.75 6.7 11.95 6.78359375 12.03359375 6.85 12.1
L 7.25 15.4 7.3 15.65 7.35 16.15
Q 7.35 16.2 7.5 17.1
L 7.3 17.3
Q 7.4 17.4 7.3 17.45 7.2 17.8 7.6 18 7.75 18.1 8.05 18.1
L 8.35 18
Q 8.55 17.9 8.55 17.8
L 8.6 17.7
Q 8.6419921875 17.490234375 8.55 17.05 8.677734375 16.8828125 8.7 16.55
L 8.45 16.65
Q 8.35 16.75 8.25 16.65 8.1 16.65 8 16.5 7.85 16.35 7.85 15.95
L 7.95 15.55 8.05 15.4 8.1 15.4
Q 8.35 15.15 8.65 15.35
L 8.55 13.2
Q 8.95 13.15 9.15 12.55 9.3 12.15 9.2 11.65
L 9.1 8.3 8.95 7.1 8.4 6.15
Q 8.111328125 5.6208984375 7.9 5.2 8.033203125 5.1333984375 8.1 5
L 8.15 4.9 8.15 4.6
Q 8.2 3.9 8.05 3.6 7.9017578125 3.229296875 7.6 3.3 7.5927734375 3.1783203125 7.6 3.05 7.65 1.95 7.65 1.65 7.65 0.5 7.05 -0.4 7.2 -0.75 7.3 -1.5 8.45 -1.8 8.8 -3.2 9.05 -4.1 8.75 -5.6
L 8.1 -10.35
Q 7.9625 -11.45 7.6 -12.1 7.6984375 -12.103515625 7.75 -12.15 7.9439453125 -12.1029296875 8.15 -12.25 8.4 -12.4 8.4 -12.75
L 8.3 -13.35
Q 8.25 -13.7 8.2 -14.6 8.15 -15.4 8.05 -15.85
L 7.85 -16.4
Q 7.8 -16.5 7.25 -17.05 6.3 -17.75 5.9 -17.8
L 5.35 -17.75
Q 4.5 -17.55 4.2 -17.25
L 3.95 -17.05 2.95 -15.95
M 0 -10.75
L 0.05 -10.7
Q 0.15 -10.6 0.1 -10.6
L 0.15 -10.55 0.25 -10.35 0.6 -10.2
Q 0.7 -10.1 0.7 -10.05 0.8 -9.85 0.75 -9.7
L 0.65 -9.5 0.55 -9.4 -0.05 -9.1 -0.35 -8.9 -1 -8.75
Q -1.15 -8.65 -1.55 -8.65
L -1.85 -8.7 -2.1 -8.9
Q -2.2 -9 -2.2 -9.05
L -2.25 -9.25
Q -2.35 -9.5 -2.25 -9.75
L -2.2 -9.8 -2.25 -9.95 -2.15 -9.9 -2.15 -10.1 -2.1 -10.1
Q -2.1966796875 -10.1033203125 -2.1 -10.2 -2.05078125 -10.24921875 -2.05 -10.2 -2.0494140625 -10.35 -1.95 -10.35
L -0.75 -10.7 -0.5 -10.8 -0.2 -10.85 0 -10.75
M -1.6 -7.95
L -1.6 -7.8 -1.65 -7.8
Q -1.8 -7.6 -1.7 -7.55
L -1.8 -7.5
Q -1.75 -7.45 -1.85 -7.35 -1.95 -7.35 -1.95 -7.2
L -2 -7.2
Q -1.95 -7.15 -2.05 -7.05
L -2.1 -6.95
Q -2.2 -6.85 -2.15 -6.8
L -2.2 -6.75 -2.3 -6.7 -2.25 -6.8
Q -2.15 -6.95 -2.25 -7.15
L -2.2 -7.2 -2.15 -7.35 -2.05 -7.9 -1.6 -7.95
M -7.15 0.3
Q -6.85 0.1 -6.6 0.3 -6.3 0.5 -6.4 0.8 -6.4 0.95 -6.55 1.2
L -6.7 1.5 -6.8 2
Q -6.85 2.2 -6.9 2.55 -7.1 2.95 -7.45 2.75 -7.8 2.65 -7.8 2.3 -7.9 2.05 -7.8 1.75 -7.7 1.1 -7.45 0.7 -7.35 0.45 -7.15 0.3
M -4.45 -12.2
Q -4.15 -12.2 -3.85 -12.05 -3.55 -11.75 -3.55 -11.7 -2.95 -10.85 -2.95 -8.65
L -3.05 -7.95
Q -3.1 -7.85 -3.5 -6.85 -3.4 -6.5 -3.45 -6.35 -3.45 -6.1 -3.8 -5.5
L -5.3 -3.4
Q -5.65 -2.95 -6.05 -2.9 -6.65 -2.8 -6.95 -3.3
L -7.1 -3.8
Q -7.2 -4.3 -7.5 -5.3
L -7.55 -5.95 -7.35 -7.8 -7.2 -8.4
Q -6.8 -10.2 -6.4 -10.9
L -5.75 -11.85
Q -5.678515625 -11.914453125 -5.6 -12 -5.135546875 -12.2857421875 -4.45 -12.2
M -5.55 -13.2
Q -5.35 -13.4 -5.15 -13.1
L -5 -12.9
Q -5.209375 -12.8732421875 -5.4 -12.8 -5.5228515625 -12.75078125 -5.65 -12.65 -5.6296875 -13.040625 -5.55 -13.2
M 3.3 -12.75
L 3.55 -12.75 4.2 -12.8 4.05 -12.75 3.7 -12.6
Q 3.4 -12.3 3.6 -12 3.088671875 -11.8580078125 2.75 -11.75 2.5580078125 -11.66484375 2.45 -11.6
L 1.8 -11.1
Q 1.4 -10.8 1.1 -10.85 0.8064453125 -11.53515625 -0.3 -11.55
L -0.35 -11.55
Q -1.4048828125 -11.55 -2.4 -11 -2.4630859375 -10.9537109375 -2.55 -10.9 -2.5607421875 -10.971484375 -2.6 -11.05 -2.6578125 -11.4017578125 -2.9 -11.75 -2.930859375 -11.813671875 -3 -11.9 -3.241015625 -12.190625 -3.6 -12.45 -3.488671875 -12.41484375 -3.4 -12.4 -2.9 -12.3 -2.55 -12.45 -1.4 -11.7 0 -11.7 0.35 -11.7 0.5 -11.85
L 0.8 -12.1
Q 0.85 -12.15 1.4 -12.3 1.85 -12.35 2.7 -12.7 2.9353515625 -12.7392578125 3.3 -12.75
M 4.6 -12.6
Q 4.8263671875 -12.6205078125 5.05 -12.65 5.916015625 -12.6177734375 6.75 -12.3 7.1 -12.2 7.2 -12.05 7.4 -11.85 7.4 -11.55 7.65 -10.45 8 -7.2
L 8.15 -5.1
Q 8.25 -4.35 8.15 -4 8.0267578125 -3.5482421875 7.7 -3.15
L 7.75 -3.1 7.7 -3.1 7.65 -3.05 7.65 -3 7.65 -2.95 7.55 -2.9
Q 7.4328125 -2.5384765625 7.15 -2.35 6.7 -2 6.2 -2.15 5.7 -2.25 5.45 -2.75 5.35 -2.9 5.25 -3.75
L 4.9 -4.6 4.75 -5.35
Q 4.2 -7.9 3.9 -9 3.8 -9.45 3.5 -9.65 3.05 -9.7 2.8 -9.8 2.45 -9.9 2.1 -10.45 1.9 -10.75 1.9 -10.95 2 -11.3 2.3 -11.4 2.55 -11.5 2.85 -11.3 2.95 -11.5 3.2 -11.6 3.45 -11.7 3.65 -11.6 3.6341796875 -11.694921875 3.6 -11.8 3.637109375 -12.2396484375 4.1 -12.45 4.15 -12.5 4.6 -12.6
M -6.05 -16
Q -5.94921875 -16 -5.85 -16 -5.50859375 -15.9966796875 -5.2 -16 -5.016015625 -15.9693359375 -4.85 -15.95
L -3.8 -15.3 -3.35 -14.95 -3.1 -14.85 -2.9 -14.65 -2.75 -14.6 -2.65 -14.5 -2.65 -14.5
Q -2.6791015625 -14.447265625 -2.75 -14.4 -2.9 -14.25 -2.85 -14.05 -2.85 -13.8 -2.7 -13.7 -3.2193359375 -13.8349609375 -3.6 -13.9 -3.671875 -13.85 -3.85 -13.85
L -4.15 -13.9
Q -4.2693359375 -13.85078125 -4.35 -13.75 -4.75 -14.15 -5.3 -14.3 -5.4 -14.3166015625 -5.5 -14.35 -5.5359375 -14.1716796875 -5.5 -14.1
L -5.6 -14.05 -5.6 -13.9 -5.65 -13.7 -5.65 -13.6 -5.7 -13.25 -5.75 -13.05 -5.75 -13 -5.85 -12.9 -6.05 -12.8 -6.2 -12.75 -6.4 -12.85 -6.3 -14.8
Q -6.280859375 -14.952734375 -6.25 -15.1
L -6.25 -15.15
Q -6.2419921875 -15.1802734375 -6.25 -15.25
L -6.25 -15.3
Q -6.269921875 -15.312890625 -6.2 -15.45 -6.134765625 -15.7740234375 -6.05 -16
M -8.5 5.8
Q -8.349609375 5.6873046875 -8.25 5.5 -8.0658203125 5.4419921875 -7.85 5.55 -7.6 5.65 -7.6 5.95
L -7.6 6.5 -7.75 6.9 -8.3 9.35
Q -8.3 9.9 -8.15 11 -8.25 11.55 -8.4 11.8
L -8.75 12.3
Q -8.95 12.6 -9.1 12.65 -9.5 12.8 -9.7 12.4
L -10.05 11.35
Q -10.15 11.05 -10.05 10.8
L -9.8 8.25
Q -9.65 7.45 -9.15 6.5
L -8.85 5.95
Q -8.81015625 5.91015625 -8.8 5.85 -8.6369140625 5.88203125 -8.5 5.8
M -7 4
L -7 4.05
Q -7.043359375 4.31015625 -7.3 4.7 -7.3099609375 4.7056640625 -7.35 4.7 -7.1587890625 4.3302734375 -7 4
M 7.7 6.4
Q 8.15 6.4 8.4 6.85
L 8.75 7.85
Q 8.85 8.2 8.85 8.9
L 8.65 10.85 8.65 10.9
Q 8.6 11.25 8.65 11.55 8.65 12.1 8.6 12.2
L 8.5 12.35
Q 8.3 12.55 8.05 12.45 8.003125 12.43828125 7.95 12.4
L 7.95 12.35 7.8 11.9
Q 7.65 11.65 7.35 11.65
L 7.3 11.65
Q 7.2197265625 11.518359375 7.2 11.4
L 7.1 11.2
Q 6.95 11 6.95 10.75 6.95 10.55 6.8 10.45
L 6.55 9.3
Q 6.2 8.7 6.35 8.05 6.35 7.900390625 6.5 7.9 6.45078125 7.89921875 6.55 7.8
L 6.7 7.75
Q 6.8 7.7 6.7 7.6 6.7 7.2 6.85 6.9
L 6.95 6.75
Q 7.3 6.4 7.7 6.4
M 6.25 -1.35
Q 6.203515625 -1.375390625 6.1 -1.4 6.212890625 -1.375 6.3 -1.4 6.2849609375 -1.3640625 6.25 -1.35
M 7.2 0.3
Q 7.35 0.5 7.25 0.85
L 7.35 2.05
Q 7.45 2.45 7.4 2.65 7.35 2.85 7.05 2.95 6.85 3 6.6 2.85 6.4998046875 2.7498046875 6.4 2.55
L 6.35 2.25 6.25 1.35
Q 6.25859375 0.99375 6.3 0.6
L 6.3 0.35
Q 6.45 0.05 6.75 0.05 7.05 0 7.2 0.3
M 4.95 -10.05
Q 4.9390625 -10.03359375 4.9 -10.05 4.7587890625 -10.0283203125 4.6 -10.05
L 4.7 -9.85
Q 4.794140625 -10.0173828125 4.95 -10.05
M 2.15 -17.05
L 1.85 -17.2
Q 1.8 -17.2 1.5 -17.05 1.4 -16.95 1.45 -16.95
L 1.4 -16.9 1.35 -16.75 1.3 -16.8 1.3 -16.5 1 -16.5
Q 0.7318359375 -16.5845703125 0.45 -16.5
L 0.4 -16.5 0.25 -16.55 -0.05 -16.55 -0.15 -16.6 -0.5 -16.95 -0.7 -17.05 -0.95 -17 -1.15 -16.85 -1.25 -16.7 -1.3 -16.45 -1.2 -16.2 -1.1 -16.1 -1.1 -16.05 -0.95 -15.9
Q -0.65 -15.6 -0.5 -15.6
L -0.3 -15.55 -0.25 -15.55
Q -0.25 -15.417578125 -0.25 -15.25 -0.25 -14.75 0 -14.55 0.2 -14.25 0.55 -14.6 0.85 -14.9 0.7 -15.25 0.8 -15.1 0.9 -14.75 0.95 -14.4 1.1 -14.25 1.35 -14 1.7 -14.2 1.85 -14.3 1.95 -14.7
L 1.85 -15.25
Q 1.8197265625 -15.3509765625 1.75 -15.45
L 1.8 -15.45 1.95 -15.5 2.15 -15.6 2.25 -15.7 2.25 -15.75 2.35 -16.25 2.35 -16.6 2.3 -16.75 2.3 -16.9 2.25 -16.9 2.15 -17.05
M -10.85 21.1
L -10.95 21.35 -11.35 22.1 -11.45 22.2 -11.5 22.4 -11.7 22.85
Q -11.85 22.85 -11.75 23.05 -12 22.95 -11.85 23.2
L -11.8 23.2
Q -11.8 23.15 -11.7 23.05
L -11.65 22.95 -11.65 22.85 -11.55 22.7 -10.95 22.1 -10.6 22
Q -10.35 21.9 -10.05 22.05
L -9.85 22.25
Q -9.9 22.3 -9.8 22.5
L -9.75 22.65 -9.8 23 -9.8 23.1 -9.85 23.25 -9.95 23.4 -9.95 23.45 -10.1 23.7 -10.15 23.75
Q -10.1 23.8 -10.2 23.9
L -10.3 24.05 -10.7 24.45 -10.85 24.55 -11.15 24.7 -11.45 24.75 -11.75 24.7
Q -11.95 24.6 -12 24.45
L -12.05 24.4 -12.05 24.3
Q -12.1 24.15 -12.05 24
L -12.05 23.9 -12 23.8 -11.95 23.75 -11.95 23.6 -11.9 23.35
Q -11.8 23.25 -11.85 23.2 -12 23.15 -12 23.3 -12.15 23.45 -12.15 23.5
L -12.45 23.95 -12.55 24.15
Q -12.8 24.5 -12.8 24.75 -12.9 25.15 -12.6 25.35 -12.45 25.45 -11.8 25.45
L -9.8 25.25
Q -9.15 25.1 -8.8 24.65
L -8.7 24.5
Q -8.65 24.2 -8.75 23.65
L -8.8 23.35
Q -9.1 22.75 -9.15 22.35
L -9.15 22.25
Q -9.25 21.25 -9.2 20.65 -9.2 20.15 -9.3 19.9 -9.45 19.55 -9.75 19.65 -10.1 19.65 -10.2 19.95
L -10.25 20.65
Q -10.65 20.85 -10.85 21.1
M 8.6 19.9
Q 8.4 19.6 8.15 19.65 7.85 19.65 7.75 19.9 7.75 20 7.65 20.05 7.65 20.4 7.8 20.7
L 7.75 20.75 7.6 20.95 7.3 21.9 7.2 22
Q 7.3 22.1 7.2 22.15 7.15 22.25 7.2 22.3
L 7.15 22.45 7.15 22.55 7.05 22.65 7.05 23.8 7.15 24.35
Q 7.25 24.65 7.55 24.75
L 8.1 24.6 8.4 24.6 10.2 24.95
Q 10.75 25 11.35 24.85
L 11.55 24.5
Q 11.7 24 11.25 23.45
L 9.45 21.55 8.9 20.6 8.6 19.9
M 8 20.8
L 8.15 20.65
Q 8.3 20.55 8.5 20.6 8.75 20.65 8.8 20.85
L 9 21.25
Q 9.1 21.35 9 21.4
L 9.1 21.45 9.45 21.9 9.6 22.05 10.7 23.7 10.8 24 10.85 24 10.85 24.25 10.75 24.35
Q 10.75 24.5 10.5 24.6
L 10.1 24.65 8.7 24.35
Q 8.55 24.3 8.35 24.1
L 8.3 24.2 8.2 24.3 8 24.45
Q 7.75 24.6 7.5 24.45 7.25 24.2 7.3 23.9
L 7.35 23.75 7.55 23.45
Q 7.6 23.45 7.7 23.25
L 7.7 22.95 7.95 22.4
Q 8.1 22.4 7.95 22.25
L 8.05 22.15 8.25 22.05 8.1 21.8 7.95 21.45
Q 7.8 21.1 8 20.8 Z"/>

<path fill="#FFFFFF" stroke="none" d="
M 7.85 7
L 7.65 6.9
Q 7.5 6.9 7.3 7.1
L 7.2 7.2 7.25 7.35 7.2 7.3 7.15 7.8 7.15 7.95 7.15 8 7.45 10.7 7.45 10.8 7.55 11.3
Q 7.55 11.6 7.65 11.7 7.8 11.9 8.05 11.9 8.35 11.8 8.4 11.6
L 8.5 11.5 8.35 8.35 8.3 8.4 8.3 8.3 8.2 7.95
Q 8.2 7.9 8.15 7.95
L 8.15 7.6 8.05 7.2 7.85 7
M -8.25 7.1
L -8.3 6.9 -8.35 6.85
Q -8.35 6.75 -8.55 6.65 -9 6.55 -9.25 6.95 -9.3 6.95 -9.3 7
L -9.35 7.1 -9.5 7.55
Q -9.4 7.65 -9.5 7.7
L -9.65 8.2 -9.65 8.3 -9.7 8.6
Q -9.75 9.1 -9.7 9.7
L -9.7 10.9 -9.65 11.3
Q -9.65 11.6 -9.5 11.65
L -9.25 11.8
Q -9 11.8 -8.85 11.65
L -8.75 11.5
Q -8.65 11.3 -8.65 10.8
L -8.75 9.25 -8.7 8.75 -8.55 8.1 -8.5 8 -8.5 7.75 -8.45 7.6
Q -8.45 7.45 -8.35 7.45 -8.15 7.25 -8.25 7.1
M -3.45 -14.8
L -3.65 -14.9 -3.65 -14.95
Q -3.85 -15.15 -4 -15.15 -4.2 -15.2 -4.4 -15.1 -4.5 -15 -4.45 -15
L -4.6 -14.85 -4.6 -14.65 -4.55 -14.45
Q -4.45 -14 -4.15 -13.9
L -3.85 -13.85
Q -3.671875 -13.85 -3.6 -13.9 -3.490625 -13.909375 -3.45 -13.95
L -3.35 -14.05 -3.25 -14.25
Q -3.2 -14.35 -3.3 -14.6 -3.3 -14.65 -3.45 -14.8
M 6.7 -11.5
L 6.55 -11.95
Q 6.35 -12.15 6.1 -12.1 6.0138671875 -12.1 5.9 -12.05 5.8138671875 -11.9708984375 5.7 -11.8 5.602734375 -11.94609375 5.45 -12.05 5.3279296875 -12.096875 5.15 -12.15 5.1140625 -12.14296875 5.05 -12.15 4.65 -12.2 4.35 -11.95 4.2337890625 -11.875390625 4.15 -11.8 3.8306640625 -11.480859375 3.85 -11.05 3.8767578125 -10.911328125 3.9 -10.8 3.92578125 -10.718359375 3.95 -10.65 4.184765625 -10.1021484375 4.6 -10.05 4.7587890625 -10.0283203125 4.9 -10.05 5 -10.15 5.1 -10 5.0345703125 -10.01640625 4.95 -10.05 4.794140625 -10.0173828125 4.7 -9.85 4.630859375 -9.75390625 4.6 -9.6 4.55 -9.35 4.65 -8.95
L 5.05 -7.3
Q 5.3 -6.65 5.3 -6.05 5.2 -5.8 5.3 -5.55 5.3 -5.25 5.6 -5.1 5.55 -4.85 5.65 -4.45 5.8 -3.9 5.8 -3.8
L 5.8 -3.15
Q 5.8 -2.8 6.05 -2.65 6.1634765625 -2.56484375 6.3 -2.55 6.391796875 -2.5568359375 6.5 -2.6 6.75 -2.75 6.8 -3
L 6.85 -3.2
Q 6.9 -3.3 7.05 -3.35 7.25 -3.45 7.3 -3.6 7.65 -3.5 7.75 -4 7.85 -4.3 7.65 -4.65 7.25 -6.15 7.2 -6.95
L 6.7 -11.5
M -4.1 -11.05
Q -4.025 -11.25 -4.1 -11.4 -4.15 -11.55 -4.35 -11.65 -4.7 -11.8 -4.95 -11.55 -5.0755859375 -11.4244140625 -5.1 -11.25 -5.1 -11.190625 -5.1 -11.15
L -5.25 -10.25 -5.4 -9.8
Q -5.5701171875 -10.055078125 -5.85 -9.95 -5.8974609375 -9.8875 -5.95 -9.85 -6.0056640625 -9.8166015625 -6.05 -9.8 -6.222265625 -9.6220703125 -6.3 -9.35
L -6.45 -8.9
Q -6.5291015625 -8.662890625 -6.6 -8.3 -6.6 -7.9755859375 -6.6 -7.55
L -6.7 -4.55
Q -6.7 -4.15 -6.6 -4 -6.35 -3.65 -6 -3.8 -5.92109375 -3.8294921875 -5.85 -3.9 -5.6197265625 -4.038671875 -5.7 -4.4 -5.5576171875 -4.3390625 -5.45 -4.4 -5.2279296875 -4.4330078125 -5.05 -4.7
L -4.9 -5
Q -4.82734375 -5.21796875 -4.85 -5.45
L -4.85 -5.45
Q -4.876171875 -5.5283203125 -4.9 -5.6 -4.7923828125 -5.559765625 -4.7 -5.6 -4.4859375 -5.571484375 -4.35 -5.8 -4.3228515625 -5.8486328125 -4.3 -5.9
L -4.05 -6.5 -3.7 -7.1 -3.65 -7.55 -3.65 -10.35
Q -3.65 -10.65 -3.75 -10.75 -3.85 -11.05 -4.1 -11.05
M -5.6 -6.8
L -5.55 -6.75 -5.55 -6.7 -5.6 -6.65 -5.65 -6.8 -5.6 -6.8
M 4.95 -15.2
Q 4.82890625 -15.2 4.75 -15.2 4.5654296875 -15.1654296875 4.5 -15.1 4.400390625 -15.000390625 4.45 -15 4.399609375 -14.9994140625 4.3 -14.85
L 4.3 -14.8 4.3 -14.7
Q 4.2 -14.55 4.4 -14.35 4.55 -14.15 5.05 -14.15
L 5.4 -14.25 5.5 -14.35 5.6 -14.55
Q 5.65 -14.7 5.55 -14.9
L 5.55 -14.95 5.3 -15.15 4.95 -15.2
M -10.55 23.15
Q -10.575 23.1126953125 -10.6 23.05 -10.616796875 23.0107421875 -10.65 22.95 -10.7892578125 22.711328125 -11.1 22.8 -11.3 22.8 -11.4 22.95
L -11.5 23.1 -11.65 23.4 -11.75 23.45
Q -11.7 23.5 -11.8 23.6
L -11.9 23.75 -11.95 23.9
Q -12 24.05 -11.9 24.25 -11.8 24.5 -11.55 24.5 -11.25 24.6 -11.1 24.35
L -11 24.25 -10.9 24.05 -10.75 23.8 -10.7 23.8 -10.6 23.5 -10.55 23.5
Q -10.5125 23.3501953125 -10.55 23.15
M 9.6 22.6
L 9.6 22.5 9.5 22.4
Q 9.4 22.1 9.05 22.1 8.826953125 22.0255859375 8.65 22.2 8.6384765625 22.26015625 8.6 22.35
L 8.55 22.5
Q 8.5 22.5 8.5 22.55 8.5 22.85 8.8 23.25
L 9.15 23.75
Q 9.4 24.05 9.7 24.15 10.1474609375 24.2396484375 10.25 23.95
L 10.3 23.95 10.3 23.9 10.4 23.8 10.35 23.55 10.25 23.3 10 23.15
Q 9.8 23.05 9.8 22.95
L 9.6 22.6 Z"/>
</g>
</defs>

<g transform="matrix( 1, 0, 0, 2.1666717529296875, 0,-121.35) ">
<use xlink:href="#Layer0_0_FILL"/>
</g>

<g filter="url(#Filter_1)" transform="matrix( 1, 0, 0, 1, 0,0) ">
<g transform="matrix( 1, 0, 0, 1, 27,71.95) ">
<g transform="matrix( 1, 0, 0, 1, 0,0) ">
<use xlink:href="#legsDmg_0_Layer0_0_FILL"/>
</g>
</g>
</g>
</svg>
