
<svg xmlns="http://www.w3.org/2000/svg" version="1.1" xmlns:xlink="http://www.w3.org/1999/xlink" preserveAspectRatio="none" x="0px" y="0px" width="54px" height="104px" viewBox="0 0 54 104">
<defs>
<filter id="Filter_1" x="-81.00628124626749%" y="-52.91935221996613%" width="262.012562492535%" height="205.83870443993226%" color-interpolation-filters="sRGB">
<feGaussianBlur in="SourceGraphic" stdDeviation="0.6666666666666666,0.6666666666666666" result="result1"/>
</filter>

<g id="Layer2_0_FILL">
<path fill="#00FF00" fill-opacity="0" stroke="none" d="
M 54 0
L 0 0 0 104 54 104 54 0 Z"/>
</g>

<g id="headDmg_0_Layer0_0_FILL">
<path fill="#FF0000" stroke="none" d="
M 0.35 -4.9
L 0.1 -4.75 0 -4.6 0 -4.45 -0.1 -4.55 -0.45 -4.6 -1.05 -4.55
Q -1.15 -4.55 -1.2 -4.5 -1.3 -4.45 -1.25 -4.4
L -1.4 -4.25 -1.45 -4.1 -1.4 -3.95
Q -2.18671875 -3.7287109375 -2.6 -3.35
L -2.85 -3
Q -3.15 -2.45 -2.95 -1.5
L -2.75 -0.9 -2.65 -0.75 -2.85 -0.6 -2.95 -0.45 -2.95 -0.45
Q -3.1220703125 -0.492578125 -3.25 -0.45
L -3.35 -0.45
Q -3.5484375 -0.35078125 -3.55 -0.25 -3.55078125 -0.29921875 -3.6 -0.25
L -3.65 -0.15 -3.7 0 -3.65 0.15 -3.6 0.25 -3.5 0.35
Q -3.2 0.65 -2.85 0.4
L -2.85 0.35 -2.8 0.5 -2.7 0.7
Q -2.3 1 -2.05 0.7
L -1.95 0.65 -1.8 0.45 -1.9 0.1 -1.9 0.05
Q -1.792578125 0.0677734375 -1.65 0.05 -1.2 0 -1.05 0 -1.3 0.7 -1.45 1
L -1.85 1.45 -1.85 1.4 -2.05 1.25
Q -2.25 1.15 -2.4 1.2
L -2.5 1.2
Q -2.7 1.3 -2.7 1.4
L -2.75 1.4 -2.8 1.5 -2.85 1.65 -2.8 1.85 -2.75 1.95 -2.65 2.05
Q -2.3677734375 2.3322265625 -2.05 2.1 -2.05 2.234375 -2.05 2.35 -1.9 3.4 -1.85 3.55 -1.75 3.85 -1.55 4 -1.5025390625 4 -1.05 4.1 -1.18671875 4.2109375 -1.35 4.3
L -1.4 4.3 -1.55 4.45 -1.6 4.45 -1.6 4.65
Q -1.7 4.75 -1.6 4.9 -1.5 5.15 -1.35 5.2
L -1.05 5.3 -0.65 5.2 -0.3 5.65
Q -0.2 5.8 0 6.05
L 0.2 6.2 0.4 6.3
Q 0.65 6.3 0.8 6.15
L 0.9 6.05 0.9 6
Q 0.95 6 1.05 5.75
L 1.05 5.7 1.45 5.3
Q 1.55 5.2 1.5 5.15
L 1.6 5.15 1.6 4.9 1.8 4.75 1.9 4.65 1.9 4.6 2 4.15 1.95 3.95
Q 2.014453125 3.935546875 2.05 3.9
L 2.05 3.75 2.1 3.7 2.15 3.35 2.2 3.2 2.4 3 2.4 2.95 2.5 2.85 2.55 2.7
Q 2.7 2.55 2.6 2.4
L 2.65 2.35 2.8 2.1 2.8 2.05 2.95 1.8
Q 3.05 1.7 3 1.6
L 3.05 1.65 3.05 1.15 3 1.2
Q 3.031640625 1.1365234375 3 1.05
L 3.05 0.65
Q 3.2048828125 -0.666015625 2.7 -1.55 2.7845703125 -1.562890625 2.85 -1.65 3 -1.7 3 -1.9 3.1 -2 3 -2.15
L 2.95 -2.35 2.95 -2.3 2.85 -2.45 2.55 -2.6 2.55 -2.7
Q 2.55 -3.25 2.35 -3.5 2.15 -3.8 1.45 -4.1
L 1.1 -4.3 1 -4.35 0.9 -4.65
Q 0.9 -4.7 0.8 -4.8
L 0.5 -4.95 0.35 -4.9
M 0.7 -1.15
L 0.65 -1.05
Q 0.6208984375 -1.0791015625 0.6 -1.1 0.50625 -1.1208984375 0.4 -1.05
L 0.2 -1
Q 0.15 -0.9 0.2 -0.85 0.2 -0.9 0.25 -0.85
L 0.25 -0.85 0.25 -0.75 0.2 -0.75 -0.05 -0.4
Q -0.3728515625 -0.645703125 -0.55 -1 -1.05 -0.75 -1.8 -0.75 -2.05 -0.75 -2.3 -0.9 -2.6 -1.1 -2.7 -1.7 -2.8 -2.2 -2.65 -2.6 -2.6 -2.85 -2.3 -3.15 -2.1 -3.45 -1.9 -3.5 -1.8 -3.6 -1.45 -3.6 -1 -3.6 -0.8 -3.5 -0.45 -3.4 -0.4 -3.05 -0.3 -3.1 -0.15 -3.1 0.4 -3.3 0.75 -2.95 1.3 -2.65 1.3 -1.95 1.2 -1.75 1.3 -1.6
L 1.5 -1.45
Q 1.95 -1.2 2.15 -0.55 2.2 -0.35 2.2 0.55
L 2.2 1 1.95 1.45 1.85 1.7 1.8 1.8 1.7 2.05
Q 1.6556640625 2.1208984375 1.6 2.15 1.4322265625 2.4587890625 1.35 2.5 1.05 2.8 0.4 2.8 0.35 3.25 -0.05 3.55 -0.1771484375 3.6453125 -0.35 3.7 -0.368359375 3.7310546875 -0.45 3.75 -0.65078125 3.85 -0.9 3.85 -1.1 3.85 -1.35 3.7 -1.6 3.45 -1.6 2.95
L -1.55 2.6 -1.45 2.25 -1.15 1.85
Q -0.9 1.7 -0.7 1.75 -0.7 1.55 -0.5 1.25 -0.55 0.5 -0.35 0.2
L -0.05 -0.05
Q 0.15 -0.15 0.05 -0.35
L 0 -0.4 0.05 -0.45
Q 0.1 -0.45 0.1 -0.5 0.2 -0.6 0.2 -0.55
L 0.35 -0.75 0.35 -0.8 0.4 -0.75 0.5 -0.75
Q 0.7 -0.65 0.85 -0.75
L 0.95 -0.75 1.05 -0.8 1.15 -0.9 1.15 -1 1 -1.05 0.95 -1.05 0.8 -1.1 0.7 -1.15
M 0 4.3
L 0.1 4.15 0.2 4.05 0.3 4 0.45 3.95
Q 0.6 3.85 0.9 4.05
L 1 4.2 1 4.15 1.05 4.35
Q 1.15 4.5 1.05 4.6
L 0.95 4.8 0.8 5
Q 0.55 5.2 0.3 5.1
L 0.05 4.85 0 4.65 0 4.3
M -0.4 -2.7
L -0.55 -2.75 -0.6 -2.65 -0.65 -2.65 -0.65 -2.6 -0.7 -2.6 -0.75 -2.55 -0.8 -2.45 -0.85 -2.45 -0.95 -2.3 -1.15 -2.1 -1.25 -1.95
Q -1.25 -2 -1.3 -1.95
L -1.35 -1.85 -1.45 -1.8
Q -1.5 -1.75 -1.45 -1.7
L -1.15 -1.95 -1 -2.15
Q -0.95 -2.15 -0.95 -2.2 -0.85 -2.3 -0.85 -2.25
L -0.7 -2.45 -0.4 -2.7
M -0.45 1.4
Q -0.5 1.45 -0.45 1.45
L -0.4 1.45 -0.45 1.55 -0.35 1.55 -0.25 1.6 -0.3 1.6 -0.2 1.65 -0.2 1.7 -0.15 1.65
Q -0.055078125 1.5826171875 0.1 1.35 0.1 1.4 0.15 1.35
L 0.2 1.25 0.3 1.2 0.35 1.1 0.4 1.1 0.55 0.9 0.7 0.75
Q 0.842578125 0.7716796875 0.95 0.7
L 1.05 0.7 1.25 0.6
Q 1.3 0.55 1.25 0.55
L 1.2 0.45 1.15 0.4 1.05 0.35 0.8 0.3 0.75 0.4
Q 0.65 0.3 0.5 0.4
L 0.3 0.45
Q 0.3412109375 0.45 0.3 0.55 0.3087890625 0.5736328125 0.3 0.6
L 0.2 0.65 0.15 0.75 0.1 0.75 0.1 0.75 -0.25 1.25 -0.3 1.25 -0.35 1.35 -0.45 1.4 Z"/>

<path fill="#FFFF00" stroke="none" d="
M 0.1 4.15
L 0 4.3 0 4.65 0.05 4.85 0.3 5.1
Q 0.55 5.2 0.8 5
L 0.95 4.8 1.05 4.6
Q 1.15 4.5 1.05 4.35
L 1 4.15 1 4.2 0.9 4.05
Q 0.6 3.85 0.45 3.95
L 0.3 4 0.2 4.05 0.1 4.15
M 0.35 -2.35
Q 0.6 -2.35 0.7 -2.15
L 0.7 -2.1
Q 0.85 -1.65 0.7 -1.25
L 0.7 -1.2 0.6 -1.1
Q 0.6208984375 -1.0791015625 0.65 -1.05
L 0.7 -1.15 0.8 -1.1 1 -1.15 1.25 -1.05
Q 1.4 -0.9 1.4 -0.85
L 1.45 -0.85
Q 1.6 -0.65 1.5 -0.6
L 1.55 -0.55 1.6 0.65 1.55 0.8 1.55 0.9 1.3 1.15 1.2 1.35 1.2 1.4 1.1 1.5 1.1 1.55 0.7 1.95 0.45 2.05
Q 0.05 2.05 -0.1 1.8
L -0.15 1.7 -0.15 1.65 -0.2 1.7 -0.2 1.65 -0.3 1.6 -0.25 1.6 -0.35 1.55 -0.45 1.55 -0.4 1.45 -0.45 1.45
Q -0.5 1.45 -0.45 1.4
L -0.35 1.35 -0.3 1.25 -0.25 1.25 0.1 0.75 0.1 0.75 0.15 0.45 0.2 0.5 0.2 0.35
Q 0.2 0.3 0.3 0.2
L 0.55 0.05
Q 0.65 -0.1 0.55 -0.25
L 0.55 -0.35 0.5 -0.4 0.45 -0.55 0.5 -0.7 0.5 -0.75 0.4 -0.75 0.35 -0.8 0.35 -0.75 0.2 -0.55
Q 0.2 -0.6 0.1 -0.5 0.1 -0.45 0.05 -0.45
L 0 -0.4 0.05 -0.35
Q 0.15 -0.15 -0.05 -0.05
L -0.35 0.2
Q -0.55 0.5 -0.5 1.25 -0.7 1.55 -0.7 1.75 -0.9 1.7 -1.15 1.85
L -1.45 2.25 -1.55 2.6 -1.6 2.95
Q -1.6 3.45 -1.35 3.7 -1.1 3.85 -0.9 3.85 -0.65078125 3.85 -0.45 3.75 -0.368359375 3.7310546875 -0.35 3.7 -0.1771484375 3.6453125 -0.05 3.55 0.35 3.25 0.4 2.8 1.05 2.8 1.35 2.5 1.4322265625 2.4587890625 1.6 2.15 1.6556640625 2.1208984375 1.7 2.05
L 1.8 1.8 1.85 1.7 1.95 1.45 2.2 1 2.2 0.55
Q 2.2 -0.35 2.15 -0.55 1.95 -1.2 1.5 -1.45
L 1.3 -1.6
Q 1.2 -1.75 1.3 -1.95 1.3 -2.65 0.75 -2.95 0.4 -3.3 -0.15 -3.1 -0.3 -3.05 -0.4 -3
L -0.4 -3.05
Q -0.45 -3.4 -0.8 -3.5 -1 -3.6 -1.45 -3.6 -1.8 -3.6 -1.9 -3.5 -2.1 -3.45 -2.3 -3.15 -2.6 -2.85 -2.65 -2.6 -2.8 -2.2 -2.7 -1.7 -2.6 -1.1 -2.3 -0.9 -2.05 -0.75 -1.8 -0.75 -1.05 -0.75 -0.55 -1 -0.3728515625 -0.645703125 -0.05 -0.4
L 0.2 -0.75 0.25 -0.75 0.25 -0.85 0.25 -0.85
Q 0.2 -0.9 0.2 -0.85 0.15 -0.9 0.2 -1
L 0.15 -1
Q -0.15 -1 -0.3 -1.2
L -0.5 -1.55 -0.6 -1.85 -0.4 -2.25 -0.3 -2.3
Q 0.05 -2.45 0.35 -2.35
M -1.1 2.95
L -1.15 2.75 -1.1 2.6 -1 2.5 -1 2.45 -0.75 2.3 -0.6 2.25 -0.3 2.4
Q -0.2 2.5 -0.2 2.55
L -0.1 2.9 -0.25 3.1 -0.35 3.15
Q -0.6 3.45 -1 3.15
L -1.1 2.95
M -0.55 -2.75
L -0.4 -2.7 -0.7 -2.45 -0.7 -1.8 -0.75 -1.7 -1.05 -1.3 -1.75 -1.2 -1.8 -1.2 -2.1 -1.3
Q -2.3 -1.5 -2.3 -1.7 -2.35 -1.9 -2.3 -2.15
L -2.25 -2.2 -2.25 -2.3 -2.1 -2.6 -1.95 -2.8 -1.8 -2.95 -1.7 -3
Q -1.4 -3.1 -1.3 -3.05 -1.1 -3.05 -0.95 -2.95 -0.8 -2.85 -0.7 -2.65
L -0.7 -2.6 -0.65 -2.6 -0.65 -2.65 -0.6 -2.65 -0.55 -2.75 Z"/>

<path fill="#FFFFFF" stroke="none" d="
M -0.85 -2.45
L -0.8 -2.45 -0.75 -2.55 -0.7 -2.6 -0.7 -2.65
Q -0.8 -2.85 -0.95 -2.95 -1.1 -3.05 -1.3 -3.05 -1.4 -3.1 -1.7 -3
L -1.8 -2.95 -1.95 -2.8 -2.1 -2.6 -2.25 -2.3 -2.25 -2.2 -2.3 -2.15
Q -2.35 -1.9 -2.3 -1.7 -2.3 -1.5 -2.1 -1.3
L -1.8 -1.2 -1.75 -1.2 -1.05 -1.3 -0.75 -1.7 -0.7 -1.8 -0.7 -2.45 -0.85 -2.25
Q -0.85 -2.3 -0.95 -2.2 -0.95 -2.15 -1 -2.15
L -1.15 -1.95 -1.45 -1.7
Q -1.5 -1.75 -1.45 -1.8
L -1.35 -1.85 -1.3 -1.95
Q -1.25 -2 -1.25 -1.95
L -1.15 -2.1 -0.95 -2.3 -0.85 -2.45
M -1.15 2.75
L -1.1 2.95 -1 3.15
Q -0.6 3.45 -0.35 3.15
L -0.25 3.1 -0.1 2.9 -0.2 2.55
Q -0.2 2.5 -0.3 2.4
L -0.6 2.25 -0.75 2.3 -1 2.45 -1 2.5 -1.1 2.6 -1.15 2.75
M 1.25 -1.05
L 1 -1.15 0.8 -1.1 0.95 -1.05 1 -1.05 1.15 -1 1.15 -0.9 1.05 -0.8 0.95 -0.75 0.85 -0.75
Q 0.7 -0.65 0.5 -0.75
L 0.5 -0.7 0.45 -0.55 0.5 -0.4 0.55 -0.35 0.55 -0.25
Q 0.65 -0.1 0.55 0.05
L 0.3 0.2
Q 0.2 0.3 0.2 0.35
L 0.2 0.5 0.15 0.45 0.1 0.75 0.15 0.75 0.2 0.65 0.3 0.6
Q 0.3087890625 0.5736328125 0.3 0.55 0.3412109375 0.45 0.3 0.45
L 0.5 0.4
Q 0.65 0.3 0.75 0.4
L 0.8 0.3 1.05 0.35 1.15 0.4 1.2 0.45 1.25 0.55
Q 1.3 0.55 1.25 0.6
L 1.05 0.7 0.95 0.7
Q 0.842578125 0.7716796875 0.7 0.75
L 0.55 0.9 0.4 1.1 0.35 1.1 0.3 1.2 0.2 1.25 0.15 1.35
Q 0.1 1.4 0.1 1.35 -0.055078125 1.5826171875 -0.15 1.65
L -0.15 1.7 -0.1 1.8
Q 0.05 2.05 0.45 2.05
L 0.7 1.95 1.1 1.55 1.1 1.5 1.2 1.4 1.2 1.35 1.3 1.15 1.55 0.9 1.55 0.8 1.6 0.65 1.55 -0.55 1.5 -0.6
Q 1.6 -0.65 1.45 -0.85
L 1.4 -0.85
Q 1.4 -0.9 1.25 -1.05
M 0.7 -2.15
Q 0.6 -2.35 0.35 -2.35 0.05 -2.45 -0.3 -2.3
L -0.4 -2.25 -0.6 -1.85 -0.5 -1.55 -0.3 -1.2
Q -0.15 -1 0.15 -1
L 0.2 -1 0.4 -1.05
Q 0.50625 -1.1208984375 0.6 -1.1
L 0.7 -1.2 0.7 -1.25
Q 0.85 -1.65 0.7 -2.1
L 0.7 -2.15 Z"/>
</g>
</defs>

<g transform="matrix( 1, 0, 0, 1, 0,0) ">
<use xlink:href="#Layer2_0_FILL"/>
</g>

<g filter="url(#Filter_1)" transform="matrix( 1, 0, 0, 1, 0,0) ">
<g transform="matrix( 1, 0, 0, 1, 27.8,22.85) ">
<g transform="matrix( 1, 0, 0, 1, 0,0) ">
<use xlink:href="#headDmg_0_Layer0_0_FILL"/>
</g>
</g>
</g>
</svg>
