
<svg xmlns="http://www.w3.org/2000/svg" version="1.1" xmlns:xlink="http://www.w3.org/1999/xlink" preserveAspectRatio="none" x="0px" y="0px" width="54px" height="104px" viewBox="0 0 54 104">
<defs>
<filter id="Filter_1" x="-31.00334099007636%" y="-26.122896610639533%" width="162.00668198015273%" height="152.24579322127906%" color-interpolation-filters="sRGB">
<feGaussianBlur in="SourceGraphic" stdDeviation="1,1" result="result1"/>
</filter>

<g id="Layer1_0_FILL">
<path fill="#00FF00" fill-opacity="0" stroke="none" d="
M 54 0
L 0 0 0 104 54 104 54 0 Z"/>
</g>

<g id="bodyDmg_0_Layer0_0_FILL">
<path fill="#FF0000" stroke="none" d="
M -12.85 18.05
Q -12.7 18.35 -12.75 18.4
L -12.85 18.65 -12.85 19.25
Q -12.75 19.7 -12.85 20.15
L -13.15 20.45 -13.4 20.65
Q -13.73671875 21.0708984375 -13.85 21.35 -13.8421875 21.4025390625 -13.85 21.45
L -13.8 22.4 -13.75 22.75
Q -13.75 22.95 -13.55 23.05
L -13.35 23.35 -13.25 23.75
Q -13.1 23.95 -12.8 23.95
L -12.3 23.8
Q -12 23.65 -11.95 23.55 -11.85 23.45 -11.85 23.1
L -11.9 22.25 -12.15 21.7 -11.95 21.5 -11.7 20.95
Q -11.6 20.7 -11.7 20.45
L -11.8 20.15 -11.85 19.8 -11.85 19.05 -11.8 18.85 -11.7 18.6
Q -11.65 18.45 -11.75 18.1
L -11.95 17.5
Q -12.05 17.15 -12.1 17.1 -12.45 16.75 -12.8 17
L -12.95 17.15
Q -13.05 17.35 -12.95 17.7
L -12.85 18.05
M 13.45 19.4
Q 13.4 19.1 13 19.1 12.7 19 12.55 19.35
L 12.5 19.5 12.45 19.5 12.45 19.6
Q 12.7 20.3 12.75 20.9 12.4 21 12.25 21.25 12.2330078125 21.30078125 12.2 21.35 12.175390625 21.5921875 12.3 21.8 12.35 21.9 12.6 22.15
L 12.65 22.65
Q 12.55 22.65 12.15 22.9
L 11.75 23.1
Q 11.5009765625 23.2494140625 11.5 23.3 11.499609375 23.250390625 11.4 23.35 11.25 23.7 11.35 24.1
L 11.4 24.2 11.7 24.55 11.85 24.8 11.9 25
Q 11.95 25.35 12.35 25.45 12.75 25.45 12.9 25.1 13 25 12.9 25 13.3 24.8 13.35 24.7
L 13.6 24.4
Q 13.7 24 13.6 23.6
L 13.75 23.5 13.85 23.35
Q 13.95 23.15 13.9 22.95
L 13.65 22.6
Q 13.55 22.35 13.7 22.15 13.85 22 13.75 21.8
L 13.7 21.65 13.7 21.5 13.75 21.4 13.75 21.35 13.8 20.75
Q 13.8 20.7 13.75 20.7
L 13.55 19.65
Q 13.5 19.6 13.55 19.5
L 13.45 19.4
M -2 -10.25
Q -2.15 -10.55 -2.45 -10.55 -2.5 -10.55 -2.9 -10.45 -4.05 -9.95 -4.95 -9.7
L -5.6 -9.5
Q -7.3 -9.05 -8.5 -7.75 -8.8 -7.45 -8.9 -7.25
L -9.3 -6.6
Q -9.6 -6.05 -9.6 -5.95 -9.7 -5.45 -9.45 -5.25 -9.175390625 -4.8837890625 -8.85 -5.15
L -8.85 -5.1
Q -8.85 -4.95 -8.95 -4.95 -8.8 -4.8 -9 -4.8 -8.9 -4.7 -9 -4.65
L -9.05 -4.4 -9.2 -3.95 -9.25 -3.95 -9.2 -3.8 -9.25 -3.75 -9.3 -3.55 -9.4 -3.45
Q -9.25 -3.3 -9.45 -3.3
L -9.45 -3.05 -9.6 -2.3
Q -9.65 -2.2 -9.6 -2.15 -9.75 -2.1 -9.65 -2
L -9.7 -1.95 -9.75 -1.6 -9.75 -0.8 -9.7 -0.55
Q -9.6 -0.25 -9.3 -0.25 -8.95 -0.25 -8.85 -0.55
L -8.8 -0.65 -8.8 -1.15 -8.7 -1.25 -8.7 -1.75 -8.55 -2.25
Q -8.45 -2.6 -8.5 -2.8
L -8.45 -2.9 -8.4 -3.1
Q -8.4 -3.15 -8.35 -3.15
L -8.35 -3.35 -8.3 -3.35 -8.2 -3.6 -8.15 -3.85
Q -8.1 -3.85 -8.05 -3.8 -7.85 -3.75 -7.7 -3.75 -7.6 -3.5 -7.3 -3.2
L -7.5 -3.1
Q -7.6 -2.9 -7.7 -2.85
L -7.95 -2.65 -8.3 -2.2
Q -8.45 -1.95 -8.3 -1.65 -8.05 -1.2 -7.55 -1.5
L -6.65 -2.35 -6.55 -2.4
Q -6.2 -1.9 -6.05 -1.65 -5.25 -0.5 -4.95 0.55
L -4.85 0.8
Q -4.8 1.25 -4.7 2 -4.5 3.15 -4.1 3.75 -4.8 4.35 -5.15 5.3 -5.5 6.2 -5.35 7.1 -5.15 8.3 -4.1 9.7 -3.883203125 10.009765625 -3.65 10.3
L -3.85 10.4 -4.15 10.4 -4.6 10.35 -5.1 10.45 -5.25 10.6
Q -5.5 10.85 -5.5 11.55
L -5.45 12.45 -5.4 12.75 -5.35 12.85
Q -5.1833984375 12.7583984375 -5 12.85 -4.9220703125 12.8759765625 -4.85 12.95 -4.7720703125 13.055859375 -4.7 13.2 -4.5 13.5 -4.4 13.6
L -3.6 13.95
Q -3.744921875 14.0052734375 -3.95 14.1
L -4.3 14.3
Q -4.65 14.3 -5 14.55 -5.2 14.6 -5.3 14.95 -5.5 15.4 -5.05 15.65 -4.5 15.85 -4.35 15.35 -4 15.35 -3.8 15.2
L -3.6 15.05
Q -3.2423828125 14.9400390625 -3.05 14.8 -3.0576171875 14.9923828125 -2.9 15.15 -2.85 15.25 -2.6 15.4 -2.35 15.65 -2.1 16.4
L -1.95 16.6
Q -1.75 16.8 -1.4 16.7 -1.15 16.55 -1.1 16.25
L -1.2 15.95
Q -1.4 15.3 -1.65 14.9 -1.6818359375 14.8521484375 -1.75 14.8 -1.5953125 14.814453125 -1.4 14.8
L -1.1 14.5 -1.05 14.45
Q -0.7 14.1 -0.7 13.7
L -0.7 13.65
Q -0.452734375 13.764453125 -0.3 13.55
L -0.25 13.55 -0.15 13.5 0 13.3 -0.1 12.95
Q -0.1 12.9 -0.2 12.8
L -0.25 12.75 -0.5 12.65 -0.65 12.7 -0.9 12.85 -1 12.95 -2 11.9
Q -1.9466796875 11.91953125 -1.9 11.95 -1.0767578125 12.471484375 -0.25 12.6
L -0.25 12.55
Q -0.15 12.25 0.1 12.25 0.4 12.15 0.6 12.45 0.64453125 12.516796875 0.65 12.6 0.8845703125 12.6001953125 1.1 12.55 1.74765625 12.3880859375 2.6 11.7
L 2.55 12.05 2.35 12.35 2.35 12.4 2.3 12.45
Q 2.3 12.55 2.25 12.65 2.1 12.7 2.2 12.8 2.05 12.85 2.15 12.95
L 2.05 13.05 2 13.1 2.05 13.2
Q 2.05 13.3 1.95 13.75 1.9 13.85 1.9 14.2 1.8630859375 14.384375 1.8 14.5 2.0115234375 14.526953125 2.15 14.55 2.232421875 14.5716796875 2.3 14.6 2.5 14.4 2.4 14.35 2.5 14.35 2.55 14.15
L 2.65 14 2.75 13.9 2.75 13.85 2.95 13.6 3.1 13.3
Q 3.1951171875 13.45 3.35 13.45 3.5390625 13.5255859375 3.7 13.4 3.751171875 13.398828125 3.8 13.35
L 3.95 13.15 4 13.1 3.95 12.55 3.9 12.3 3.85 12.1 3.85 12.05 3.75 11.95 3.7 11.9
Q 3.6748046875 11.885546875 3.65 11.85
L 3.65 11.8
Q 3.681640625 11.759375 3.7 11.7 3.97734375 11.309375 3.75 10.9
L 3.7 10.8
Q 3.6513671875 10.7513671875 3.6 10.7
L 3.65 8.75 3.7 8.7 4 8.5 4.2 8.5
Q 4.35 8.5 4.55 8.7
L 4.65 9.1 4.65 9.6
Q 5.624609375 8.0203125 5.25 6.1 4.85 4.7 4.9 4
L 5.4 1.7
Q 5.45 1.55 5.8 0.9 6 0.4 6.05 0.1 6.05 -0.05 6.05 -0.3 6.1 -0.35 6.15 -0.4
L 6.55 -1.3
Q 6.6 -1.25 6.75 -1.25
L 7.1 -1.25
Q 7.8 -1.4 8.35 -1.35
L 8.85 -1.35
Q 9.05 -1.4 9.15 -1.7 9.25 -1.95 9.05 -2.2 8.8 -2.4 8.3 -2.4
L 7 -2.3 7.25 -2.85
Q 7.4 -3.15 7.7 -3.45 7.75 -3.4 7.85 -3.4
L 8.15 -3.35 8.45 -3.25 8.85 -3
Q 9.25 -2.8 9.4 -2.8 9.85 -2.7 9.85 -3.1 9.9 -3.15 9.9 -3.1 9.95 -3.3 9.85 -3.55 9.7 -3.8 9.4 -3.95
L 9 -4.1 8.75 -4.3
Q 8.85 -4.35 8.95 -4.4 9.4 -4.6 9.45 -4.75 9.4998046875 -4.8248046875 9.5 -4.95 9.567578125 -4.6931640625 9.6 -4.45 9.75 -3.65 9.9 -3.55 10.05 -3.4 10.3 -3.45 10.55 -3.5 10.6 -3.7 10.75 -3.9 10.65 -4.2 10.55 -5.2 10.45 -5.45
L 10.15 -6.1
Q 9.55 -7.05 8.5 -7.7 8 -8 6.8 -8.5
L 4.75 -9.65
Q 4.619140625 -9.6826171875 4.5 -9.7 4.456640625 -9.723828125 4.4 -9.75
L 2.05 -10.6
Q 1.75 -10.7 1.05 -10.7 0.25 -10.7 -0.1 -10.6 -0.45 -10.55 -1.4 -10.2
L -1.75 -10
Q -1.862890625 -9.887109375 -1.85 -9.75
L -2.15 -9.65 -2.2 -9.65
Q -2.094921875 -9.705078125 -2.05 -9.75 -1.9 -9.95 -2 -10.25
M -3.2 -6.35
Q -2.7 -6.55 -2 -6.5 -0.55 -6.2 0.2 -6.05 1.2 -5.8 1.3 -5.75 2 -5.5 2.45 -4.8 2.85 -4.1 2.75 -3.35
L 2.8 -3 3.05 -2.75
Q 4.6 -1.8 5 -0.4 5.6 1.2 4.6 2.5 4.25 2.9 3.5 3.65
L 2.8 4.75
Q 1.95 5.95 0.5 5.85 -0.1 6.7 0.05 7.65 0.75 7.7 1.25 8.2 1.8 8.75 1.85 9.45 1.9 10.15 1.4 10.8 0.95 11.4 0.25 11.5 -0.85 11.65 -1.7 10.8 -2.45 10.1 -2.8 8.95
L -2.95 8.65
Q -3.05 8.5 -3.4 8.4 -4.15 8.1 -4.55 7.3 -4.95 6.5 -4.75 5.7 -4.5 4.9 -3.8 4.4 -3.05 3.9 -2.25 4
L -2 3.95
Q -1.85 3.9 -1.85 3.5 -1.85 1.25 -1.8 0.95 -1.55 -0.5 -0.5 -1.15 -0.65 -1.3 -2.05 -1.85 -3.5 -2.35 -4.15 -3.35 -4.5 -3.9 -4.5 -4.55 -4.5 -4.85 -4.45 -5.05 -4.35 -5.45 -4.1 -5.75 -3.75 -6.2 -3.2 -6.35
M -4.85 -7.05
L -5 -6.9 -5.2 -6.85 -5.45 -6.7 -5.7 -6.6 -5.9 -6.55 -6.05 -6.55 -6.4 -6.4
Q -6.2 -6.6 -5.85 -6.7
L -5.6 -6.85 -5.2 -6.95
Q -4.9 -7.1 -4.85 -7.05
M -6 -5.15
Q -5.8 -5.2 -5.55 -5.05 -5.1 -4.95 -5.05 -4.7
L -5 -4.35 -5 -3.8
Q -4.9 -3.7 -4.95 -3.5 -4.95 -3.25 -4.95 -3.2
L -4.85 -2.9 -4.45 -2.2
Q -4.25 -2.15 -4.1 -2 -3.9 -1.9 -4 -1.8
L -3.95 -1.8 -3.95 -1.6
Q -3.45 -1.6 -3.1 -1.15 -2.8 -0.7 -2.9 -0.2 -2.8 -0.2 -2.4 0.1 -2.1 0.6 -2.1 0.85 -2 1.3 -2.25 1.6 -2.5 1.95 -2.95 1.85 -3.1 1.8 -3.45 1.45
L -3.75 0.85 -4 0.55
Q -4.1 0.3 -3.95 0.15
L -4.3 -0.2
Q -4.35 -0.25 -4.5 -0.15 -4.9 0.1 -5.2 -0.3 -5.35 -0.7 -5.1 -1.05
L -5.05 -1.15 -5.1 -1.35 -6 -2.9
Q -6.1 -3.15 -6.3 -3.3
L -6.65 -3.65
Q -6.85 -3.85 -6.9 -4.05 -6.95 -4.35 -6.7 -4.6
L -6.5 -4.7 -6.35 -4.95
Q -6.15 -5.15 -6 -5.15
M -7.45 -5.4
Q -7.4 -5.2 -7.3 -5.1
L -7.55 -4.95 -7.45 -5.4
M 5.5 -6.2
L 5.85 -6.25 7.25 -6.1
Q 7.55 -5.9 7.6 -5.7
L 7.65 -5.45 7.55 -5.35
Q 7.45 -5.1 7.15 -5.1 6.75 -5.15 6.6 -5.15
L 6.45 -5.15
Q 6.5 -5.1 6.55 -5
L 6.55 -4.75 6.3 -4.4 6.15 -4.25
Q 6.25 -4.2 6.3 -4.1
L 6.4 -3.75
Q 6.4 -3.7 6.35 -3.7 6.5 -3.1 6.2 -2.65
L 5.8 -2.3 4.55 -2.15 4.2 -2.25
Q 3.95 -2.35 3.95 -2.65 3.9 -2.8 3.85 -3.05
L 3.75 -3.25
Q 3.6 -3.65 3.7 -4.2 3.7 -4.35 3.85 -4.35 3.4 -4.7 3.7 -5.25 3.8 -5.45 3.75 -5.55 3.7 -5.55 3.7 -5.6
L 3.65 -5.9 3.7 -5.95 3.75 -6.1 3.8 -6.2
Q 4 -6.4 4.2 -6.4
L 4.7 -6.3 5 -6.2
Q 5.2 -6.1 5.3 -6.15
L 5.5 -6.2
M 3.95 7.4
L 4.2 7.25 4.35 7.2 4.65 7.35
Q 4.75 7.45 4.75 7.5
L 4.85 7.85 4.7 8.05 4.6 8.1
Q 4.35 8.4 3.95 8.1
L 3.85 7.9 3.8 7.7 3.85 7.55 3.95 7.4
M 0.95 -7.85
Q 1.15 -7.95 1.25 -7.9 1.45 -7.9 1.65 -7.75 2.05 -8 2.5 -7.65
L 2.55 -7.6
Q 2.75 -7.25 2.5 -7
L 2.3 -6.85 2.1 -6.8 1.45 -6.8
Q 1.1 -6.8 0.85 -7.05
L 0.8 -7.15
Q 0.65 -7.35 0.75 -7.6 0.75 -7.75 0.9 -7.75
L 0.95 -7.85
M -4.45 11.75
L -4.5 11.7
Q -4.55 11.6 -4.45 11.4
L -4.25 11.55 -3.95 11.65 -3.5 11.55 -3.45 11.65 -3.45 11.65 -3.2 12.05 -2.45 12.95 -2.35 13.15 -2.1 13.3 -1.9 13.5 -1.75 13.6 -1.65 13.75 -1.55 13.85 -1.45 13.95 -1.4 14.2 -1.55 14.15 -2 14.05 -2.3 13.9 -2.4 13.8 -3.1 13.5 -3.25 13.4 -3.35 13.35 -3.6 13.1 -3.65 13.1 -3.65 13.05 -4.05 12.75 -4.25 12.55 -4.25 12.45 -4.3 12.45 -4.35 12.4
Q -4.3 12.35 -4.4 12.25
L -4.4 12.2
Q -4.4185546875 12.142578125 -4.4 12.05
L -4.45 12 -4.45 11.75
M -2.75 14.35
L -2.75 14.35 -2.75 14.35 -2.75 14.35
M -5.2 -8.55
L -5.1 -8.6
Q -5.1673828125 -8.3109375 -5 -8.15 -5.49453125 -7.9814453125 -6.05 -7.75 -6.6978515625 -7.462109375 -7.3 -7.15 -7.1943359375 -7.0607421875 -7.15 -6.95 -7 -6.8 -7.1 -6.6
L -7.3 -6.25 -7.65 -5.9 -7.9 -5.5
Q -8.1 -5.3 -8.4 -5.4 -8.52734375 -5.4318359375 -8.65 -5.6
L -8.65 -5.6
Q -8.6171875 -5.6640625 -8.6 -5.75
L -8.4 -6.1
Q -8.0328125 -6.7341796875 -7.55 -7.25 -6.5990234375 -8.18359375 -5.2 -8.55
M -2.45 -9.55
L -2.15 -9.5 -2 -9.55 -1.9 -9.55 -1.75 -9.6 -1.45 -9.65 -1.3 -9.7 -1.2 -9.75 -1 -9.8
Q -0.8 -9.9 -0.7 -9.85
L -0.45 -9.75
Q -0.3515625 -9.6515625 -0.35 -9.6
L -0.35 -9.65 -0.35 -9.5
Q 0.8060546875 -9.91640625 2 -9.55
L 2.1 -9.6 2.4 -9.75
Q 2.55 -9.75 2.8 -9.5
L 3 -9.3 3.05 -9.2 3.45 -9.05 3.5 -9 3.65 -8.95 3.75 -8.95 3.9 -8.9 3.95 -8.9 4 -8.85 4.4 -8.6
Q 4.6724609375 -8.5009765625 5.05 -8.3
L 4.95 -8.15 5.25 -7.85 5.15 -7.9 4.75 -8 4.7 -8 4.55 -7.95 4 -7.9
Q 3.35 -7.9 3.05 -8.05
L 2.9 -8.15 2.75 -8.2 2.45 -8.35 2.25 -8.55 2.15 -8.7 1.95 -8.85 1.9 -9 1.85 -8.95 -0.35 -9 -0.45 -9
Q -0.477734375 -8.9240234375 -0.55 -8.9
L -0.9 -8.7 -1 -8.7 -1.05 -8.55 -0.95 -8.2 -0.75 -8 -0.6 -8
Q -1.158984375 -7.8794921875 -1.8 -7.7 -1.8 -7.8 -1.8 -7.9 -1.75 -8.15 -1.95 -8.35 -2.067578125 -8.467578125 -2.4 -8.5
L -3.1 -8.5 -3.4 -8.55
Q -3.6 -8.65 -3.65 -8.75
L -3.7 -8.9 -3.75 -9 -2.55 -9.45
Q -2.48203125 -9.483984375 -2.45 -9.55
M 5.85 -7.8
Q 5.8693359375 -7.77109375 5.9 -7.75
L 6.75 -7.4
Q 7.45 -7.1 8.15 -6.65
L 8.2 -6.6 9.05 -5.85
Q 9.212109375 -5.6158203125 9.3 -5.4 9.346484375 -5.3296875 9.35 -5.3
L 9.3 -5.35
Q 9.3017578125 -5.2517578125 9.2 -5.15 8.95 -4.9 8.65 -5 8.5 -5.05 8.2 -5.35
L 7.8 -5.8
Q 7.65 -6 7.75 -6.25
L 7.85 -6.4 8 -6.5 8 -6.5
Q 7.220703125 -6.8537109375 6.25 -6.9 6.3 -7.2 6.1 -7.4
L 5.9 -7.55 5.3 -7.85
Q 5.6068359375 -7.6982421875 5.85 -7.8
M -0.3 14.6
Q -0.3 14.55 -0.4 14.45
L -0.7 14.3 -0.85 14.35 -1.1 14.5 -1.2 14.65 -1.25 14.8 -1.2 15 -1.1 15.2
Q -0.7 15.5 -0.45 15.2
L -0.35 15.15 -0.2 14.95 -0.3 14.6
M 1.55 13.05
Q 1.55 13 1.45 12.9
L 1.15 12.75 1 12.8 0.75 12.95 0.7 13 0.65 13.1 0.6 13.25 0.65 13.45 0.7 13.55 0.75 13.65
Q 1.15 13.95 1.4 13.65
L 1.5 13.6 1.65 13.4 1.55 13.05
M 4.6 9.9
Q 4.5 10.1 4.5 10.45
L 4.55 12.55 4.5 12.65 4.05 13.7 3.85 13.95 3.75 14.15 3.5 14.35
Q 3.3 14.15 3 14.25
L 2.9 14.25 2.8 14.3 2.7 14.45 2.65 14.45 2.6 14.55 2.55 14.8
Q 2.35 15 2.45 15.15
L 2.4 15.15
Q 2.4 15.35 2.2 15.65
L 2.15 15.6 2.2 15.8 2.1 15.8
Q 2.15 15.85 2.05 15.95
L 1.65 16.35 1.6 16.35
Q 1.65 16.45 1.55 16.6 1.45 16.7 1.55 16.85
L 1.6 17.05 1.7 17.2
Q 1.95 17.45 2.3 17.25
L 2.5 17.05 2.55 16.9 2.65 16.85 2.8 16.65 3 16.45 3 16.4 3.2 16 3.2 15.85 3.25 15.85 3.25 15.7 3.3 15.65 3.5 15.25 3.5 15.1 3.55 15.05 3.65 14.85
Q 3.69375 14.7189453125 3.6 14.55 3.8580078125 14.3861328125 4.25 14.05 4.8208984375 13.6548828125 5.15 13.8
L 5.3 13.5 5.45 13.05 5.5 12.9 5.6 12.75
Q 5.5412109375 11.9255859375 5.5 11.3 5.5294921875 10.9083984375 5.55 10.6 5.55 10.15 5.45 9.95 5.35 9.7 5.05 9.7 4.790234375 9.7 4.65 9.85 4.6201171875 9.8732421875 4.6 9.9
M 1.25 14.3
L 1.1 14.35 0.85 14.5 0.75 14.65 0.7 14.8 0.75 15 0.85 15.2
Q 1.25 15.5 1.5 15.2
L 1.6 15.15 1.75 14.95 1.65 14.6
Q 1.65 14.55 1.55 14.45
L 1.25 14.3
M 6.2 15.15
L 5.55 14.75 5.35 14.65 5.2 14.45
Q 4.95 14.2 4.55 14.3 4.15 14.5 4.25 14.8 4.25 14.95 4.5 15.3
L 5.6 15.95 5.95 16.2
Q 6.3 16.3 6.5 16.15 6.7 15.85 6.65 15.65 6.65 15.4 6.2 15.15
M 11.25 0.65
Q 11.25 0.6 11.15 0.5
L 10.85 0.35 10.7 0.4 10.6 0.45 10.45 0.55 10.35 0.7 10.3 0.85 10.35 1.05 10.45 1.25
Q 10.7439453125 1.4703125 10.95 1.35 11.03359375 1.3296875 11.1 1.25
L 11.2 1.2 11.35 1 11.25 0.65
M 9.85 -0.55
L 9.9 -0.35 10 -0.15
Q 10.23203125 0.048828125 10.45 -0.05 10.548828125 -0.048828125 10.65 -0.15
L 10.75 -0.2 10.9 -0.4 10.8 -0.75
Q 10.8 -0.8 10.7 -0.9
L 10.4 -1.05 10.25 -1 10.15 -0.95 10 -0.85 9.9 -0.7 9.85 -0.55
M 12.6 10.9
Q 12.6115234375 10.9884765625 12.55 11.05 12.47578125 11.12421875 12.4 11.15 12.5 11.3048828125 12.5 11.5 12.6 11.55 12.55 11.8 12.7 11.8 12.55 11.95 12.65 12 12.65 12.1 12.6 12.15 12.65 12.3 12.7 12.3 12.7 12.35
L 12.65 12.7 12.6 12.85
Q 12.5 13 12.2 13.1 11.93046875 13.1 11.75 12.9 11.791796875 13.0498046875 11.8 13.2
L 11.95 13.8
Q 12.15 14.2 12.5 14.1 12.85 14 12.85 13.2 12.742578125 11.85703125 12.6 10.9
M 9.3 -0.9
L 9.25 -1
Q 9.207421875 -1.0115234375 9.15 -1 8.9 -0.9 8.8 -0.7 8.7 -0.45 8.9 0
L 9.25 0.6
Q 9.35 0.95 9.45 1.75
L 9.95 2.35
Q 10.1 2.55 10.2 3.05
L 10.8 6 10.9 5.9
Q 11 5.75 11.15 5.75 11.5 5.65 11.75 6
L 11.75 6.2
Q 11.465234375 6.0724609375 11 6.15
L 10.85 6.15 10.75 6.15 10.7 6.2 10.55 6.35 10.4 6.45
Q 10.3 6.6 10.3 7 10.3 7.45 10.45 7.65 10.7 7.8 10.9 7.75
L 11.55 10.7
Q 11.569140625 10.7287109375 11.6 10.75 11.61171875 10.8595703125 11.6 10.95 11.66171875 10.9283203125 11.7 10.9 11.6853515625 10.8634765625 11.65 10.8 11.7080078125 10.8515625 11.75 10.85 11.8142578125 10.9158203125 11.9 10.95 12.08046875 11.022265625 12.2 10.95 12.2943359375 10.9056640625 12.35 10.85
L 12.45 10.7
Q 12.55 10.5 12.5 10.4
L 12.45 10.25 12.3 9.55 12.25 9.4 11.95 7.8 11.95 7.65 12.25 8.65 12.25 8.7 12.35 9.05 12.1 7.25 12.15 7.15 12.2 7.15 12.15 6.7 12.05 6.5 11.95 6.35
Q 11.680078125 4.782421875 11.45 4
L 11.25 3.2
Q 11.2201171875 2.90078125 11.15 2.65
L 11.15 2.7
Q 11.25 2.8 11.1 2.9 10.85 3.1 10.6 3 10.35 2.9 10.25 2.65
L 10.15 1.9 10.1 1.95
Q 9.9 1.65 9.9 1.45
L 9.4 0.15 9.35 0.1 9.35 0 9.25 -0.4
Q 9.2 -0.6 9.25 -0.85
L 9.3 -0.9
M 11.45 6.6
Q 11.55 6.7 11.55 6.75
L 11.65 7.1 11.5 7.3 11.4 7.35
Q 11.2794921875 7.49453125 11.1 7.5 11.031640625 7.50078125 10.9 7.45 10.838671875 7.4166015625 10.75 7.35
L 10.65 7.15 10.6 6.95 10.65 6.8 10.75 6.65 10.75 6.65 11 6.5 11.15 6.45 11.45 6.6
M -9.55 1.2
Q -9.55 1.15 -9.65 1.05
L -9.95 0.9 -10 0.9 -10.1 0.95 -10.35 1.1 -10.45 1.25 -10.5 1.4 -10.45 1.6 -10.35 1.8
Q -10.2904296875 1.8447265625 -10.25 1.85 -9.9126953125 2.0552734375 -9.7 1.8
L -9.6 1.75 -9.45 1.55 -9.55 1.2
M -9.5 2.6
Q -9.5 2.55 -9.6 2.45
L -9.9 2.3 -10.05 2.35 -10.3 2.5 -10.4 2.65 -10.45 2.8
Q -10.4759765625 2.84609375 -10.5 2.9 -10.65 3.35 -10.65 3.75
L -11.05 5.8 -11.2 5.9 -11.3 6
Q -11.4 6.35 -11.35 6.5
L -11.25 6.85 -11.3 6.95 -11.3 7 -11.3 7 -11.3 7.1 -11.35 7.25 -11.4 7.3
Q -11.35 7.4 -11.45 7.6
L -11.45 7.85
Q -11.5 7.9 -11.45 7.95
L -11.45 7.95
Q -11.454296875 8.116796875 -11.5 8.3
L -11.55 8.35
Q -11.63828125 8.43828125 -11.6 8.55
L -11.55 8.6 -11.5 8.7
Q -11.5 8.85 -11.35 8.9 -11.0181640625 9.1369140625 -10.7 8.8 -10.75 9.0048828125 -10.75 9.2 -10.75 9.95 -10.85 10.05 -11.25 10.45 -11.6 10.05 -11.75 9.85 -11.75 9.5
L -12.2 11.9
Q -12.3 12.25 -12.2 12.5 -12 12.9 -11.75 12.9 -11.5 12.9 -11.3 12.6 -11.3 12.55 -11.15 12.05
L -11.1 11.7 -11.2 11.85 -11.3 11.9
Q -11.55 12.2 -11.95 11.9
L -12.05 11.7 -12.1 11.5 -12.05 11.35 -11.95 11.2 -11.7 11.05 -11.55 11 -11.25 11.15
Q -11.15 11.25 -11.15 11.3
L -11.05 11.6 -10.5 8.4
Q -10.5041015625 8.492578125 -10.55 8.55
L -10.6 8.65
Q -10.6275390625 8.6958984375 -10.65 8.75
L -10.65 8.6 -10.6 8.6 -10.5 8.4 -10.5 8.3 -10.5 8.15
Q -10.458984375 8.2224609375 -10.45 8.25
L -10.3 7.4 -10.25 7.45 -10.15 7.3 -10.15 7.25 -10.05 7.15
Q -9.95 6.95 -9.85 6.95
L -9.75 6.85 -9.75 6.8 -9.7 6.6
Q -9.6 6.45 -9.7 6.25
L -9.75 6.2
Q -9.9 6 -9.8 5.95
L -9.85 5.95 -9.95 5.8 -10 5.75 -10 5.7 -9.75 4.95
Q -9.7 3.9 -9.55 3.4 -9.4650390625 3.2015625 -9.45 3.05 -9.4697265625 3.1197265625 -9.5 3.15 -9.5994140625 3.22109375 -9.7 3.25 -9.673828125 3.228515625 -9.65 3.2
L -9.55 3.15 -9.4 2.95 -9.5 2.6
M -10.1 6.25
L -10 6.6 -10.15 6.8 -10.25 6.85
Q -10.5 7.15 -10.9 6.85
L -11 6.65 -11.05 6.45 -11 6.3 -10.9 6.15 -10.65 6 -10.5 5.95 -10.2 6.1
Q -10.1 6.2 -10.1 6.25 Z"/>

<path fill="#FFFF00" stroke="none" d="
M 8.2 -6.6
L 8 -6.5 8 -6.5 7.85 -6.4 7.75 -6.25
Q 7.65 -6 7.8 -5.8
L 8.2 -5.35
Q 8.5 -5.05 8.65 -5 8.95 -4.9 9.2 -5.15 9.3017578125 -5.2517578125 9.3 -5.35
L 9.3 -5.4
Q 9.212109375 -5.6158203125 9.05 -5.85
L 8.2 -6.6
M 3 -9.3
L 2.8 -9.5
Q 2.55 -9.75 2.4 -9.75
L 2.1 -9.6 2 -9.55 1.95 -9.5 1.85 -9.15 1.9 -9.05 1.9 -9 1.95 -8.85 2.15 -8.7 2.25 -8.55 2.45 -8.35 2.75 -8.2 2.9 -8.15 3.05 -8.05
Q 3.35 -7.9 4 -7.9
L 4.55 -7.95 4.7 -8 4.75 -8 4.9 -8.1 4.95 -8.15 5.05 -8.3
Q 4.6724609375 -8.5009765625 4.4 -8.6
L 4 -8.85 3.95 -8.9 3.9 -8.9 3.75 -8.95 3.65 -8.95 3.5 -9 3.45 -9.05 3.05 -9.2 3 -9.3
M -2.15 -9.5
L -2.45 -9.55
Q -2.48203125 -9.483984375 -2.55 -9.45
L -3.75 -9 -3.7 -8.9 -3.65 -8.75
Q -3.6 -8.65 -3.4 -8.55
L -3.1 -8.5 -2.4 -8.5 -1.85 -8.5 -1.7 -8.55 -1.55 -8.55 -1.45 -8.6 -1.35 -8.6 -1 -8.7 -0.9 -8.7 -0.55 -8.9
Q -0.477734375 -8.9240234375 -0.45 -9 -0.3517578125 -9.046484375 -0.3 -9.15
L -0.3 -9.2
Q -0.2 -9.3 -0.3 -9.45
L -0.35 -9.5 -0.35 -9.65 -0.35 -9.6
Q -0.3515625 -9.6515625 -0.45 -9.75
L -0.7 -9.85
Q -0.8 -9.9 -1 -9.8
L -1.2 -9.75 -1.3 -9.7 -1.45 -9.65 -1.75 -9.6 -1.9 -9.55 -2 -9.55 -2.15 -9.5
M -7.5 -7.2
Q -7.52734375 -7.2109375 -7.55 -7.25 -8.0328125 -6.7341796875 -8.4 -6.1
L -8.6 -5.75
Q -8.6171875 -5.6640625 -8.65 -5.6
L -8.65 -5.6
Q -8.52734375 -5.4318359375 -8.4 -5.4 -8.1 -5.3 -7.9 -5.5
L -7.65 -5.9 -7.3 -6.25 -7.1 -6.6
Q -7 -6.8 -7.15 -6.95 -7.1943359375 -7.0607421875 -7.3 -7.15 -7.3607421875 -7.2 -7.5 -7.2
M -4.45 11.4
L -4.45 11.55
Q -4.4806640625 11.6263671875 -4.5 11.7
L -4.45 11.75 -4.45 12 -4.4 12.05
Q -4.4185546875 12.142578125 -4.4 12.2
L -4.4 12.25
Q -4.3 12.35 -4.35 12.4
L -4.3 12.45 -4.25 12.45 -4.25 12.55 -4.05 12.75 -3.65 13.05 -3.65 13.1 -3.6 13.1 -3.35 13.35 -3.25 13.4 -3.1 13.5 -2.4 13.8 -2.3 13.9 -2 14.05 -1.55 14.15
Q -1.5171875 14.0314453125 -1.55 13.9
L -1.55 13.85 -1.65 13.75 -1.75 13.6 -2 13.5 -2.3 13.3
Q -2.7 13.1 -2.85 12.9
L -2.95 12.7 -3.05 12.55
Q -3.15 12.45 -3.1 12.4
L -3.2 12.35
Q -3.1 12.35 -3.2 12.25
L -3.3 12.15 -3.35 12 -3.45 11.8 -3.45 11.65 -3.45 11.65 -3.5 11.55 -3.95 11.65 -4.25 11.55 -4.45 11.4
M 1.25 -7.9
Q 1.15 -7.95 0.95 -7.85
L 0.9 -7.75
Q 0.75 -7.75 0.75 -7.6 0.65 -7.35 0.8 -7.15
L 0.85 -7.05
Q 1.1 -6.8 1.45 -6.8
L 2.1 -6.8 2.3 -6.85 2.5 -7
Q 2.75 -7.25 2.55 -7.6
L 2.5 -7.65
Q 2.05 -8 1.65 -7.75 1.45 -7.9 1.25 -7.9
M 4.2 7.25
L 3.95 7.4 3.85 7.55 3.8 7.7 3.85 7.9 3.95 8.1
Q 4.35 8.4 4.6 8.1
L 4.7 8.05 4.85 7.85 4.75 7.5
Q 4.75 7.45 4.65 7.35
L 4.35 7.2 4.2 7.25
M 5.85 -6.25
L 5.5 -6.2 5.3 -6.15
Q 5.2 -6.1 5 -6.2
L 4.7 -6.3 4.2 -6.4
Q 4 -6.4 3.8 -6.2
L 3.75 -6.1 3.7 -5.95 3.65 -5.9 3.7 -5.6
Q 3.7 -5.55 3.75 -5.55 3.8 -5.45 3.7 -5.25 3.4 -4.7 3.85 -4.35 3.7 -4.35 3.7 -4.2 3.6 -3.65 3.75 -3.25
L 3.85 -3.05
Q 3.9 -2.8 3.95 -2.65 3.95 -2.35 4.2 -2.25
L 4.55 -2.15 5.8 -2.3 6.2 -2.65
Q 6.5 -3.1 6.35 -3.7 6.4 -3.7 6.4 -3.75
L 6.3 -4.1
Q 6.25 -4.2 6.15 -4.25
L 6.3 -4.4 6.55 -4.75 6.55 -5
Q 6.5 -5.1 6.45 -5.15
L 6.6 -5.15
Q 6.75 -5.15 7.15 -5.1 7.45 -5.1 7.55 -5.35
L 7.65 -5.45 7.6 -5.7
Q 7.55 -5.9 7.25 -6.1
L 5.85 -6.25
M 4.6 -4.7
Q 4.6 -4.8 4.75 -4.95
L 5.2 -5.15
Q 5.55 -5.15 5.7 -4.85
L 5.8 -4.6 5.65 -4.25
Q 5.55 -4.35 5.55 -4.15
L 5.55 -4 5.4 -3.7 5.2 -3.55
Q 4.8 -3.45 4.6 -3.65 4.2 -3.85 4.4 -4.2
L 4.5 -4.45
Q 4.6 -4.5 4.5 -4.6
L 4.6 -4.7
M -5.55 -5.05
Q -5.8 -5.2 -6 -5.15 -6.15 -5.15 -6.35 -4.95
L -6.5 -4.7 -6.7 -4.6
Q -6.95 -4.35 -6.9 -4.05 -6.85 -3.85 -6.65 -3.65
L -6.3 -3.3
Q -6.1 -3.15 -6 -2.9
L -5.1 -1.35 -5.05 -1.15 -5.1 -1.05
Q -5.35 -0.7 -5.2 -0.3 -4.9 0.1 -4.5 -0.15 -4.35 -0.25 -4.3 -0.2
L -3.95 0.15
Q -4.1 0.3 -4 0.55
L -3.75 0.85 -3.45 1.45
Q -3.1 1.8 -2.95 1.85 -2.5 1.95 -2.25 1.6 -2 1.3 -2.1 0.85 -2.1 0.6 -2.4 0.1 -2.8 -0.2 -2.9 -0.2 -2.8 -0.7 -3.1 -1.15 -3.45 -1.6 -3.95 -1.6
L -3.95 -1.5 -4.05 -1.3
Q -4.3 -1.05 -4.6 -1.15 -4.8 -1.2 -4.9 -1.4
L -4.95 -1.55
Q -5.05 -1.65 -4.95 -1.75
L -4.9 -1.8 -4.95 -1.95 -4.9 -1.9 -4.8 -2.05 -4.5 -2.2 -4.45 -2.2 -4.85 -2.9 -4.95 -3.2
Q -4.95 -3.25 -4.95 -3.5 -4.9 -3.7 -5 -3.8
L -5.15 -3.6 -5.25 -3.55
Q -5.5 -3.25 -5.9 -3.55
L -6 -3.75 -6.05 -3.95 -6 -4.1 -5.9 -4.25 -5.65 -4.4 -5.5 -4.45 -5.2 -4.3
Q -5.1 -4.2 -5.1 -4.15
L -5 -3.8 -5 -4.35 -5.05 -4.7
Q -5.1 -4.95 -5.55 -5.05
M -2 -6.5
Q -2.7 -6.55 -3.2 -6.35 -3.75 -6.2 -4.1 -5.75 -4.35 -5.45 -4.45 -5.05 -4.5 -4.85 -4.5 -4.55 -4.5 -3.9 -4.15 -3.35 -3.5 -2.35 -2.05 -1.85 -0.65 -1.3 -0.5 -1.15 -1.55 -0.5 -1.8 0.95 -1.85 1.25 -1.85 3.5 -1.85 3.9 -2 3.95
L -2.25 4
Q -3.05 3.9 -3.8 4.4 -4.5 4.9 -4.75 5.7 -4.95 6.5 -4.55 7.3 -4.15 8.1 -3.4 8.4 -3.05 8.5 -2.95 8.65
L -2.8 8.95
Q -2.45 10.1 -1.7 10.8 -0.85 11.65 0.25 11.5 0.95 11.4 1.4 10.8 1.9 10.15 1.85 9.45 1.8 8.75 1.25 8.2 0.75 7.7 0.05 7.65 -0.1 6.7 0.5 5.85 1.95 5.95 2.8 4.75
L 3.5 3.65
Q 4.25 2.9 4.6 2.5 5.6 1.2 5 -0.4 4.6 -1.8 3.05 -2.75
L 2.8 -3 2.75 -3.35
Q 2.85 -4.1 2.45 -4.8 2 -5.5 1.3 -5.75 1.2 -5.8 0.2 -6.05 -0.55 -6.2 -2 -6.5
M -1.1 -5.5
L -0.3 -5.05
Q -0.05 -4.95 0.5 -5 1.05 -5 1.25 -4.95 1.75 -4.85 2.05 -4.4 2.4 -4 2.4 -3.5 2.45 -2.75 2 -2.35 1.7 -2.1 1.3 -2
L 0.7 -1.95 -0.8 -2.05 -1.35 -2.2 -2.7 -2.9
Q -3.2 -3.2 -3.4 -3.45 -3.7 -3.8 -3.75 -4.3 -3.8 -4.8 -3.55 -5.15 -3.05 -6.05 -2 -5.9 -1.85 -5.9 -1.1 -5.5
M 0.95 -0.5
Q 1.4 -0.65 2.35 -0.7 2.5 -0.7 2.7 -0.7
L 3.4 -0.6
Q 3.9 -0.45 4.2 0 4.55 0.4 4.45 0.9 4.4 1.4 4.05 1.8 3.65 2.2 3.15 2.25
L 2.85 2.35 2.7 2.6
Q 2.5 2.95 2.25 3.1
L 2.05 3.25 1.95 3.45
Q 1.95 3.6 1.9 3.75 1.8 3.95 1.65 4.1
L 1.45 4.45
Q 0.75 5.25 -0.2 4.8 -0.6 4.65 -0.85 4.25 -1.15 3.8 -1.1 3.35
L -0.95 2.4 -0.75 1.85 -0.6 1.65
Q -0.4 1 -0.3 0.7 -0.1 -0.15 0.95 -0.5
M 0.95 8.7
L 1.15 9 1.35 9.45 1.35 10.05 1.3 10.05
Q 1.4 10.15 1.2 10.45
L 1.2 10.5 1.1 10.6 1.1 10.65 1.05 10.75 0.95 10.85 0.85 11 0.55 11.15 0.25 11.25
Q 0 11.35 -0.25 11.25
L -0.4 11.25 -0.8 11.1 -0.9 11.05 -1.3 10.65 -1.3 10.6 -1.4 10.5 -1.4 10.45 -1.5 10.25 -1.5 10.15 -1.55 10
Q -1.65 9.75 -1.55 9.6
L -1.5 9.55 -1.5 9.3
Q -1.35 8.9 -1.05 8.65 -0.95 8.6 -0.85 8.55 -0.7 8.4 -0.5 8.35
L -0.35 8.3 0 8.3 0.3 8.35
Q 0.7 8.45 0.95 8.7
M -4.05 5.75
Q -3.8 5.05 -3.05 4.8
L -2.9 4.75 -2.55 4.75 -2.25 4.8
Q -1.85 4.9 -1.6 5.15
L -1.35 5.45 -1.15 5.9 -1.15 6.1
Q -1.05 6.3 -1.15 6.45
L -1.2 6.5
Q -1.1 6.6 -1.3 6.9
L -1.3 6.95 -1.4 7.05 -1.4 7.1 -1.6 7.3 -1.7 7.45 -2 7.6 -2.3 7.7
Q -2.55 7.8 -2.8 7.7
L -2.95 7.7 -3.35 7.55 -3.45 7.5 -3.85 7.1 -3.85 7.05 -3.95 6.95 -3.95 6.9 -4.05 6.7 -4.05 6.6 -4.1 6.45
Q -4.2 6.2 -4.1 6.05
L -4.05 6 -4.05 5.75
M 0.7 12.95
Q 0.7 12.7560546875 0.65 12.6 0.64453125 12.516796875 0.6 12.45 0.4 12.15 0.1 12.25 -0.15 12.25 -0.25 12.55
L -0.25 12.6 -0.25 12.75 -0.2 12.8
Q -0.1 12.9 -0.1 12.95
L 0 13.3 -0.15 13.5 -0.25 13.55 -0.3 13.55 -0.3 14.3
Q -0.3 14.6 -0.2 14.75 -0.1 15.05 0.2 15.05 0.5 15.05 0.65 14.7
L 0.7 14.4 0.7 13.55 0.65 13.45 0.6 13.25 0.65 13.1 0.7 13 0.7 12.95
M 5.95 11.5
Q 5.7419921875 11.2919921875 5.5 11.3 5.5412109375 11.9255859375 5.6 12.75
L 5.5 12.9 5.45 13.05 5.5 13.2
Q 5.75 13.75 5.9 13.85 6.25 14.05 6.5 13.8
L 6.65 13.5 6.6 13.25 6.1 11.8 5.95 11.5
M -4.85 12.95
Q -4.9220703125 12.8759765625 -5 12.85 -5.1833984375 12.7583984375 -5.35 12.85
L -5.4 12.75 -5.45 12.45
Q -5.5376953125 12.4658203125 -5.65 12.55
L -5.95 13 -6.1 13.15 -6.3 13.3 -6.45 13.5 -6.5 13.6 -6.5 13.7
Q -6.6 14.05 -6.25 14.2 -5.95 14.4 -5.7 14.15
L -5.2 13.7 -5 13.45
Q -4.8361328125 13.220703125 -4.85 12.95
M 3.1 13.3
L 2.95 13.6 2.75 13.85 2.8 13.9
Q 2.8 13.95 3.05 14.05
L 3.25 14.1
Q 3.35 14.1 3.5 13.95
L 3.6 13.85 3.65 13.65
Q 3.705078125 13.53984375 3.7 13.4 3.5390625 13.5255859375 3.35 13.45 3.1951171875 13.45 3.1 13.3
M 3.7 8.7
L 3.65 8.75 3.6 10.7
Q 3.6513671875 10.7513671875 3.7 10.8
L 3.75 10.9
Q 3.97734375 11.309375 3.7 11.7
L 3.75 11.95 3.85 12.05 3.85 12.1 3.9 12.3
Q 4.179296875 12.65 4.35 12.65 4.4294921875 12.667578125 4.5 12.65
L 4.55 12.55 4.5 10.45
Q 4.5 10.1 4.6 9.9 4.6201171875 9.8732421875 4.65 9.85
L 4.65 9.6 4.65 9.1 4.55 8.7
Q 4.35 8.5 4.2 8.5
L 4 8.5 3.7 8.7
M 9.8 -1.25
L 9.6 -1.25
Q 9.35 -1.15 9.3 -1.05
L 9.25 -1 9.3 -0.9 9.25 -0.85
Q 9.2 -0.6 9.25 -0.4
L 9.35 0 9.35 0.1 9.4 0.15 9.9 1.45
Q 9.9 1.65 10.1 1.95
L 10.15 1.9 10.25 2.65
Q 10.35 2.9 10.6 3 10.85 3.1 11.1 2.9 11.25 2.8 11.15 2.7
L 11.15 2.65 11.2 2.65
Q 11.3 2.35 11.2 2.05
L 11.2 1.75 11.1 1.75
Q 11.15 1.7 11.05 1.6
L 10.95 1.35
Q 10.7439453125 1.4703125 10.45 1.25
L 10.35 1.05 10.3 0.85 10.35 0.7 10.45 0.55 10.6 0.45 10.6 0.4 10.5 0.15 10.5 0.1 10.45 -0.05
Q 10.23203125 0.048828125 10 -0.15
L 9.9 -0.35 9.85 -0.55 9.9 -0.7 10 -0.85 10.15 -0.95 10.15 -1 10.15 -1.05
Q 9.95 -1.25 9.8 -1.25
M 12.45 9.25
L 12.35 9.05 12.25 8.7 12.25 8.65 11.95 7.65 11.95 7.8 12.25 9.4 12.3 9.55 12.45 10.25 12.5 10.4
Q 12.55 10.5 12.45 10.7
L 12.35 10.85
Q 12.2943359375 10.9056640625 12.2 10.95 12.08046875 11.022265625 11.9 10.95 11.8142578125 10.9158203125 11.75 10.85 11.7080078125 10.8515625 11.65 10.8 11.6853515625 10.8634765625 11.7 10.9 11.66171875 10.9283203125 11.6 10.95 11.58671875 11.004296875 11.55 11.05
L 11.45 11.1 11.5 11.2 11.4 11.25 11.7 12.7 11.75 12.85
Q 11.765234375 12.875390625 11.75 12.9 11.93046875 13.1 12.2 13.1 12.5 13 12.6 12.85
L 12.65 12.7 12.7 12.35
Q 12.7 12.3 12.65 12.3 12.6 12.15 12.65 12.1 12.65 12 12.55 11.95 12.7 11.8 12.55 11.8 12.6 11.55 12.5 11.5 12.5 11.3048828125 12.4 11.15 12.47578125 11.12421875 12.55 11.05 12.6115234375 10.9884765625 12.6 10.9 12.65 10.826953125 12.65 10.75
L 12.65 10.45 12.5 9.35 12.45 9.25
M 11.15 5.75
Q 11 5.75 10.9 5.9
L 10.8 6 10.8 6.05 10.75 6.15 10.85 6.15 11 6.15
Q 11.465234375 6.0724609375 11.75 6.2
L 11.75 6
Q 11.5 5.65 11.15 5.75
M 11.55 6.75
Q 11.55 6.7 11.45 6.6
L 11.15 6.45 11 6.5 10.75 6.65 10.75 6.65 10.65 6.8 10.6 6.95 10.65 7.15 10.75 7.35
Q 10.838671875 7.4166015625 10.9 7.45 11.031640625 7.50078125 11.1 7.5 11.2794921875 7.49453125 11.4 7.35
L 11.5 7.3 11.65 7.1 11.55 6.75
M -9.6 0.45
Q -9.85 0.45 -9.95 0.65
L -10 0.9 -9.95 0.9 -9.65 1.05
Q -9.55 1.15 -9.55 1.2
L -9.45 1.55 -9.6 1.75 -9.7 1.8
Q -9.9126953125 2.0552734375 -10.25 1.85
L -10.3 2.5 -10.05 2.35 -9.9 2.3 -9.6 2.45
Q -9.5 2.55 -9.5 2.6
L -9.4 2.95 -9.55 3.15 -9.65 3.2
Q -9.673828125 3.228515625 -9.7 3.25 -9.5994140625 3.22109375 -9.5 3.15 -9.4697265625 3.1197265625 -9.45 3.05 -9.3 2.8818359375 -9.3 2.5
L -9.25 2 -9.15 1.55 -9 1.2
Q -8.9 0.75 -9.25 0.5 -9.4 0.4 -9.6 0.45
M -10 6.6
L -10.1 6.25
Q -10.1 6.2 -10.2 6.1
L -10.5 5.95 -10.65 6 -10.9 6.15 -11 6.3 -11.05 6.45 -11 6.65 -10.9 6.85
Q -10.5 7.15 -10.25 6.85
L -10.15 6.8 -10 6.6
M -12.05 11.7
L -11.95 11.9
Q -11.55 12.2 -11.3 11.9
L -11.2 11.85 -11.1 11.7 -11.05 11.65 -11.05 11.6 -11.15 11.3
Q -11.15 11.25 -11.25 11.15
L -11.55 11 -11.7 11.05 -11.95 11.2 -12.05 11.35 -12.1 11.5 -12.05 11.7
M -10.5 8.4
Q -10.445703125 8.35546875 -10.45 8.25 -10.458984375 8.2224609375 -10.5 8.15
L -10.5 8.3 -10.5 8.4 -10.6 8.6 -10.65 8.6 -10.65 8.75
Q -10.6275390625 8.6958984375 -10.6 8.65
L -10.55 8.55
Q -10.5041015625 8.492578125 -10.5 8.4
M -11.55 8.35
L -11.5 8.3
Q -11.454296875 8.116796875 -11.45 7.95
L -11.5 8.05 -11.7 8.65 -11.75 9.5
Q -11.75 9.85 -11.6 10.05 -11.25 10.45 -10.85 10.05 -10.75 9.95 -10.75 9.2 -10.75 9.0048828125 -10.7 8.8 -11.0181640625 9.1369140625 -11.35 8.9 -11.5 8.85 -11.5 8.7
L -11.55 8.6 -11.6 8.55
Q -11.63828125 8.43828125 -11.55 8.35 Z"/>

<path fill="#FFFFFF" stroke="none" d="
M 4.75 -4.95
Q 4.6 -4.8 4.6 -4.7
L 4.5 -4.6
Q 4.6 -4.5 4.5 -4.45
L 4.4 -4.2
Q 4.2 -3.85 4.6 -3.65 4.8 -3.45 5.2 -3.55
L 5.4 -3.7 5.55 -4 5.55 -4.15
Q 5.55 -4.35 5.65 -4.25
L 5.8 -4.6 5.7 -4.85
Q 5.55 -5.15 5.2 -5.15
L 4.75 -4.95
M -4.9 -1.8
L -4.95 -1.75
Q -5.05 -1.65 -4.95 -1.55
L -4.9 -1.4
Q -4.8 -1.2 -4.6 -1.15 -4.3 -1.05 -4.05 -1.3
L -3.95 -1.5 -3.95 -1.6 -3.95 -1.8 -4 -1.8
Q -3.9 -1.9 -4.1 -2 -4.25 -2.15 -4.45 -2.2
L -4.5 -2.2 -4.8 -2.05 -4.9 -1.9 -4.95 -1.95 -4.9 -1.8
M -5.2 -4.3
L -5.5 -4.45 -5.65 -4.4 -5.9 -4.25 -6 -4.1 -6.05 -3.95 -6 -3.75 -5.9 -3.55
Q -5.5 -3.25 -5.25 -3.55
L -5.15 -3.6 -5 -3.8 -5.1 -4.15
Q -5.1 -4.2 -5.2 -4.3
M -3.05 4.8
Q -3.8 5.05 -4.05 5.75
L -4.05 6 -4.1 6.05
Q -4.2 6.2 -4.1 6.45
L -4.05 6.6 -4.05 6.7 -3.95 6.9 -3.95 6.95 -3.85 7.05 -3.85 7.1 -3.45 7.5 -3.35 7.55 -2.95 7.7 -2.8 7.7
Q -2.55 7.8 -2.3 7.7
L -2 7.6 -1.7 7.45 -1.6 7.3 -1.4 7.1 -1.4 7.05 -1.3 6.95 -1.3 6.9
Q -1.1 6.6 -1.2 6.5
L -1.15 6.45
Q -1.05 6.3 -1.15 6.1
L -1.15 5.9 -1.35 5.45 -1.6 5.15
Q -1.85 4.9 -2.25 4.8
L -2.55 4.75 -2.9 4.75 -3.05 4.8
M 1.15 9
L 0.95 8.7
Q 0.7 8.45 0.3 8.35
L 0 8.3 -0.35 8.3 -0.5 8.35
Q -0.7 8.4 -0.85 8.55 -0.95 8.6 -1.05 8.65 -1.35 8.9 -1.5 9.3
L -1.5 9.55 -1.55 9.6
Q -1.65 9.75 -1.55 10
L -1.5 10.15 -1.5 10.25 -1.4 10.45 -1.4 10.5 -1.3 10.6 -1.3 10.65 -0.9 11.05 -0.8 11.1 -0.4 11.25 -0.25 11.25
Q 0 11.35 0.25 11.25
L 0.55 11.15 0.85 11 0.95 10.85 1.05 10.75 1.1 10.65 1.1 10.6 1.2 10.5 1.2 10.45
Q 1.4 10.15 1.3 10.05
L 1.35 10.05 1.35 9.45 1.15 9
M 2.35 -0.7
Q 1.4 -0.65 0.95 -0.5 -0.1 -0.15 -0.3 0.7 -0.4 1 -0.6 1.65
L -0.75 1.85 -0.95 2.4 -1.1 3.35
Q -1.15 3.8 -0.85 4.25 -0.6 4.65 -0.2 4.8 0.75 5.25 1.45 4.45
L 1.65 4.1
Q 1.8 3.95 1.9 3.75 1.95 3.6 1.95 3.45
L 2.05 3.25 2.25 3.1
Q 2.5 2.95 2.7 2.6
L 2.85 2.35 3.15 2.25
Q 3.65 2.2 4.05 1.8 4.4 1.4 4.45 0.9 4.55 0.4 4.2 0 3.9 -0.45 3.4 -0.6
L 2.7 -0.7
Q 2.5 -0.7 2.35 -0.7
M -0.3 -5.05
L -1.1 -5.5
Q -1.85 -5.9 -2 -5.9 -3.05 -6.05 -3.55 -5.15 -3.8 -4.8 -3.75 -4.3 -3.7 -3.8 -3.4 -3.45 -3.2 -3.2 -2.7 -2.9
L -1.35 -2.2 -0.8 -2.05 0.7 -1.95 1.3 -2
Q 1.7 -2.1 2 -2.35 2.45 -2.75 2.4 -3.5 2.4 -4 2.05 -4.4 1.75 -4.85 1.25 -4.95 1.05 -5 0.5 -5 -0.05 -4.95 -0.3 -5.05 Z"/>
</g>
</defs>

<g transform="matrix( 1, 0, 0, 1, 0,0) ">
<use xlink:href="#Layer1_0_FILL"/>
</g>

<g filter="url(#Filter_1)" transform="matrix( 1, 0, 0, 1, 0,0) ">
<g transform="matrix( 1, 0, 0, 1, 27,40) ">
<g transform="matrix( 1, 0, 0, 1, 0,0) ">
<use xlink:href="#bodyDmg_0_Layer0_0_FILL"/>
</g>
</g>
</g>
</svg>
