<?xml version="1.0" encoding="UTF-8"?>
<svg width="54px" height="104px" viewBox="0 0 54 104" version="1.1" xmlns="http://www.w3.org/2000/svg" xmlns:xlink="http://www.w3.org/1999/xlink">
    <!-- Generator: Sketch 56.2 (81672) - https://sketch.com -->
    <title>maleRed</title>
    <desc>Created with Sketch.</desc>
    <defs>
        <filter x="-17.9%" y="-90.0%" width="135.9%" height="280.0%" filterUnits="objectBoundingBox" id="filter-1">
            <feGaussianBlur stdDeviation="3" in="SourceGraphic"></feGaussianBlur>
        </filter>
        <linearGradient x1="51.5640679%" y1="135.369943%" x2="53.1912225%" y2="23.4056556%" id="linearGradient-2">
            <stop stop-color="#D20A0A" stop-opacity="0.309495192" offset="0%"></stop>
            <stop stop-color="#320000" stop-opacity="0" offset="100%"></stop>
        </linearGradient>
        <path d="M17.3986669,63.4344734 C17.3986669,63.4344734 17.9290102,66.6600834 15.2994914,66.6342441 C15.2994914,66.6342441 10.1975919,67.1779146 11.2338261,61.648541 C11.2338261,61.648541 11.4394891,58.5060122 12.8771552,58.1213953 L12.7248963,57.3332706 C12.7248963,57.3332706 12.7137523,54.0026697 13.6062167,53.5558317 C13.6062167,53.5558317 14.040177,47.1978073 14.3216672,45.7072573 C14.6031573,44.2167074 15.2042122,43.5113618 15.3737035,42.4056456 C15.5431947,41.2999294 15.5055623,39.0967392 16.2567561,37.3577529 C16.2567561,37.3577529 16.6044465,36.9204239 16.4623406,35.5331961 C16.3202348,34.1459683 16.8160921,31.381253 21.0540293,29.9417618 C21.0540293,29.9417618 23.1023205,29.2111546 23.8278868,28.7905863 C24.553453,28.3700179 25.3091771,28.1658044 25.2047765,27.6162478 C25.1003759,27.0666913 24.7787553,26.2581664 24.7674599,25.6110565 C24.7674599,25.6110565 24.3254125,26.074223 23.8386204,23.973967 C23.8386204,23.973967 23.322374,22.7367451 23.6784651,22.922386 C23.6784651,22.922386 23.3439536,20.0528802 24.7636433,18.6383911 C24.7636433,18.6383911 27.7640604,15.4946268 30.1028315,17.8503411 C30.1028315,17.8503411 32.1715501,19.7069374 31.9348775,22.395391 C31.9348775,22.395391 32.4272814,22.2666772 32.0941885,23.3986055 C32.0941885,23.3986055 31.7350661,25.8731494 31.2272204,25.2588974 C31.2272204,25.2588974 31.3684966,26.5985926 30.9318474,27.2293309 C30.9318474,27.2293309 30.6973348,28.7190608 31.7235591,29.1340763 C32.7497834,29.5490918 34.6793348,30.422976 34.99718,30.9679727 C34.99718,30.9679727 36.3278636,31.2083396 37.3691296,32.5323255 C38.4103956,33.8563114 38.6506084,35.385302 38.5612003,37.0643556 C38.4717921,38.7434092 38.6576477,38.4807418 38.9083318,39.2871682 C39.1590159,40.0935947 39.5368806,41.3849499 39.4622051,42.6800334 C39.3875296,43.9751169 39.8249135,44.5672424 39.99685,44.9713106 C40.1687866,45.3753789 40.8832534,48.2390867 40.8281972,50.5164666 C40.773141,52.7938465 40.7571093,54.5675476 40.7571093,54.5675476 C40.7571093,54.5675476 41.1358238,54.5851277 41.2884336,55.1571992 C41.4410434,55.7292707 41.946298,57.5647762 41.5252021,57.9057899 C41.5252021,57.9057899 41.7692432,58.2844089 41.7516159,58.644239 C41.7516159,58.644239 45.0565243,63.4513647 41.2986981,66.6083497 C41.2986981,66.6083497 36.7604702,68.508533 36.9489863,64.3836647 C36.9489863,64.3836647 36.2151289,63.0067659 37.0484963,61.9136523 C37.8818638,60.8205388 37.7661096,60.9902251 37.8047119,60.4623631 C37.8433143,59.934501 37.9335922,58.3997417 38.4218331,58.0325312 C38.4218331,58.0325312 38.7356047,57.1161531 38.2168548,55.7354996 C38.2168548,55.7354996 37.5961806,55.4585488 38.0151714,55.0441659 C38.0151714,55.0441659 37.7275445,53.4909781 37.1987966,51.6792391 C36.6700488,49.8675002 36.2331599,47.934039 36.3167166,45.9197557 C36.3167166,45.9197557 36.3347951,45.5857767 35.8349462,44.1071968 C35.3350974,42.6286168 34.9053353,41.0562219 34.9053353,41.0562219 C34.9053353,41.0562219 34.8973878,40.60091 34.4930402,41.8542009 C34.0886925,43.1074918 33.4724667,45.7775458 33.8980804,47.1122779 C33.8980804,47.1122779 34.8440667,49.7317069 34.2652899,50.5325919 C34.2652899,50.5325919 34.3017379,51.2510004 34.469899,51.3915405 C34.6380601,51.5320805 34.2601752,51.5620329 34.8888114,52.2951295 C35.5174476,53.0282261 35.6834252,54.4133689 35.8045505,55.9210818 C35.9256757,57.4287947 36.1676956,57.8333079 36.2576892,58.8327274 C36.3476829,59.8321469 36.6264214,65.0324314 36.8419183,66.5151405 C37.0574151,67.9978497 37.7182052,70.5730415 37.2254104,70.8210467 C36.7326155,71.069052 35.9026743,71.0359917 35.7902679,71.3974761 C35.6778615,71.7589605 35.8190592,74.4166278 36.0765063,75.5632729 C36.3339533,76.7099181 37.3487129,79.2547407 36.6207355,85.0631817 L36.2631557,90.3654964 L36.477037,90.3859537 L36.5197585,91.4637751 C36.5197585,91.4637751 37.1267092,92.7619998 38.0002306,94.0006601 C38.5047926,94.716133 39.4220615,95.5860594 39.5274113,95.7247106 C39.5274113,95.7247106 41.2861665,97.2989326 40.8148145,97.5473977 C40.3434625,97.7958629 36.5198775,97.8467548 36.0208637,97.8329429 C35.52185,97.8191309 33.9151438,97.9656266 33.4324654,97.4235071 C32.9497869,96.8813876 32.9258259,96.7366622 33.0017918,95.8461231 C33.0777578,94.955584 33.3314912,94.3780881 33.3424373,93.6354959 C33.3533834,92.8929036 33.5437769,92.9846744 33.6285271,92.4084598 C33.7132772,91.8322452 33.4647567,88.3631466 33.4647567,88.3631466 C33.4647567,88.3631466 33.2908608,85.1546712 32.817038,83.7974242 C32.3432151,82.4401771 31.6073255,79.6243902 32.0543582,77.8882105 C32.0543582,77.8882105 32.2548681,77.1898565 31.7390749,76.1202926 C31.2232818,75.0507287 30.1549112,72.4100795 30.585314,71.2797893 L28.3744075,70.8178856 C28.384072,69.9225823 28.3447771,69.0274033 28.256703,68.1364518 C28.1877949,67.4666495 28.065944,66.8034904 27.8923207,66.1533438 C27.8923207,66.1533438 27.3456047,71.4831505 26.8289035,71.684026 C26.3122023,71.8849016 23.1643193,72.0591328 23.1643193,72.0591328 C23.1643193,72.0591328 22.799773,74.2701772 22.3384189,74.9497279 C21.8770648,75.6292785 21.5306317,76.1858702 21.2579188,78.1792646 C21.2579188,78.1792646 21.0690534,80.9144308 20.4612756,82.7460078 C19.8534978,84.5775849 18.6483698,88.8853617 18.7732505,90.6082219 C18.8981311,92.3310822 18.776149,92.2856643 18.776149,92.2856643 C18.776149,92.2856643 19.7440185,93.4666219 19.2087874,95.3453139 C19.2087874,95.3453139 19.7514071,96.5820754 19.3319942,96.9722751 C18.9125812,97.3624748 17.4069971,97.9651585 17.4069971,97.9651585 C17.4069971,97.9651585 13.0822866,98.495263 12.4624055,98.0748231 C12.4624055,98.0748231 12.1168585,97.1707876 12.6034109,96.7068441 C12.8806126,96.4425234 13.2866735,96.392464 14.0000249,95.0006687 C14.5387683,93.949545 15.3737029,91.4966251 15.7762979,91.2110786 C15.7762979,91.2110786 16.2426737,90.819225 16.2750025,89.9319501 C16.3073313,89.0446752 15.9574982,82.6052379 16.1375135,80.7327462 C16.3175288,78.8602545 16.986558,76.4286824 17.4077087,74.8155758 C17.8288594,73.2024693 18.1904016,72.141782 17.9321193,70.9000574 C17.6738371,69.6583327 17.9331295,66.8960783 17.8854444,65.5338955 C17.8377593,64.1717126 18.307629,59.8709307 18.3823356,58.719322 C18.4570422,57.5677132 18.8098785,54.8747295 19.7737143,52.9435117 C20.7375501,51.0122938 20.6419287,51.1073886 20.5723806,49.8623696 C20.5723806,49.8623696 20.4969755,48.234574 20.7851468,47.1267863 C21.0733181,46.0189985 21.2800961,45.6325104 20.7534443,43.9408537 C20.2267925,42.249197 19.6783068,40.6763719 19.6783068,40.6763719 C19.6783068,40.6763719 19.2425475,41.4997853 18.9903855,43.1591575 C18.9903855,43.1591575 18.6527241,44.1710467 18.631263,45.6337014 C18.609802,47.096356 18.6164886,47.5266652 17.896721,49.696363 C17.1769534,51.8660608 16.3619901,54.0607767 16.3619901,54.0607767 L16.6051724,54.3901954 C16.6051724,54.3901954 16.0028968,55.1672999 16.0988549,56.6028802 C16.194813,58.0384606 17.0247833,58.0731888 16.8021032,59.1072616 C16.579423,60.1413344 16.8196575,60.1129505 17.0901959,60.6871343 C17.3607343,61.2613181 18.0118011,63.2794616 17.3986669,63.4344734 Z" id="path-3"></path>
    </defs>
    <g id="maleRed" stroke="none" stroke-width="1" fill="none" fill-rule="evenodd">
        <ellipse id="Oval-Copy" fill-opacity="0.776333042" fill="#D20A0A" opacity="0.41922433" filter="url(#filter-1)" cx="27.5" cy="96.3483431" rx="25.0833333" ry="5"></ellipse>
        <path d="M2,2.84217094e-14 L52.0000185,2.84217094e-14 C53.104588,2.42945841e-14 54.0000185,0.8954305 54.0000185,2 L54.0000185,99.3930989 C54.0000354,100.302141 53.3869898,101.096841 52.5077249,101.327602 C45.7193379,103.109201 37.0892192,104 26.6173691,104 C16.185698,104 7.80078628,103.116023 1.46263407,101.34807 C0.598026184,101.106895 4.98479176e-14,100.319226 4.97379915e-14,99.4216117 L4.97379915e-14,2 C4.96027208e-14,0.8954305 0.8954305,2.86246156e-14 2,2.84217094e-14 Z" id="Rectangle" fill="url(#linearGradient-2)"></path>
        <mask id="mask-4" fill="white">
            <use xlink:href="#path-3"></use>
        </mask>
        <use id="Mask" stroke="#D20A0A" stroke-width="0.5" fill="#000000" fill-rule="nonzero" xlink:href="#path-3"></use>
    </g>
</svg>